<?xml version="1.0" standalone="no"?><!DOCTYPE svg PUBLIC "-//W3C//DTD SVG 1.1//EN" "http://www.w3.org/Graphics/SVG/1.1/DTD/svg11.dtd"><svg t="1677746924056" class="icon" viewBox="0 0 1024 1024" version="1.1" xmlns="http://www.w3.org/2000/svg" p-id="3138" xmlns:xlink="http://www.w3.org/1999/xlink" width="200" height="200"><path d="M912.832 467.104h-22.272l-6.624-22.464h60.928a32 32 0 1 0 0-64h-79.808l-35.584-120.544C815.168 221.28 771.52 192 728 192H302.592c-43.52 0-87.136 29.28-102.112 70.112l-34.944 118.528H96a32 32 0 0 0 0 64h50.624l-6.624 22.464H128c-35.296 0-64 28.704-64 64v282.944h51.104v34.816a32 32 0 1 0 64 0v-34.816h690.528v34.816a32 32 0 1 0 64 0v-34.816h43.232v-282.944a64.128 64.128 0 0 0-64.032-64zM128 750.016v-104.96h73.792c26.464 0 50.528-16.672 59.872-41.408l24.064-63.712c1.088-2.912 1.216-5.888 1.44-8.832h450.528c0.224 2.944 0.352 5.92 1.44 8.832l24.064 63.648a64.256 64.256 0 0 0 59.872 41.472h89.76v104.96H128z m784.832-168.96l-89.76-0.032-18.848-49.952h108.608v49.984zM218.528 426.944a30.944 30.944 0 0 0 2.816-9.568L261.184 282.24c4.48-12.16 23.52-26.24 41.408-26.24H728c17.888 0 36.928 14.08 40.736 24.192l55.104 186.88H206.72l11.808-40.128z m2.144 104.16l-18.88 49.984H128v-49.984h92.672z" p-id="3139" fill="#2c2c2c"></path><path d="M614.752 626.24h-188.64a32 32 0 1 0 0 64h188.64a32 32 0 1 0 0-64z" p-id="3140" fill="#2c2c2c"></path></svg>