<?xml version="1.0" standalone="no"?><!DOCTYPE svg PUBLIC "-//W3C//DTD SVG 1.1//EN" "http://www.w3.org/Graphics/SVG/1.1/DTD/svg11.dtd"><svg t="1677746992467" class="icon" viewBox="0 0 1024 1024" version="1.1" xmlns="http://www.w3.org/2000/svg" p-id="5597" xmlns:xlink="http://www.w3.org/1999/xlink" width="200" height="200"><path d="M516.551111 577.934222a203.946667 203.946667 0 0 1-203.662222-203.662222A203.832889 203.832889 0 0 1 516.551111 170.666667a203.946667 203.946667 0 0 1 203.662222 203.719111 203.832889 203.832889 0 0 1-203.662222 203.548444zM369.777778 375.409778A148.138667 148.138667 0 0 0 517.688889 523.377778a148.024889 148.024889 0 0 0 147.911111-147.854222A148.138667 148.138667 0 0 0 517.802667 227.555556 148.138667 148.138667 0 0 0 369.777778 375.409778z m364.088889 411.420444c-17.464889-105.699556-114.346667-193.251556-221.468445-193.422222-107.064889-0.227556-205.767111 87.836444-223.573333 193.422222-3.527111 16.497778-12.344889 26.567111-29.013333 23.779556a31.687111 31.687111 0 0 1-26.339556-34.929778 282.510222 282.510222 0 0 1 557.226667 1.080889 31.687111 31.687111 0 0 1-30.151111 36.579555c-15.928889 0.568889-24.120889-10.808889-26.737778-26.510222z m-46.648889-668.444444h200.135111a18.204444 18.204444 0 0 1 18.204444 18.261333V310.613333a30.72 30.72 0 1 0 61.553778 0V136.647111C967.111111 92.615111 931.384889 56.888889 887.352889 56.888889H687.217778a30.72 30.72 0 0 0 0 61.553778zM118.499556 310.613333V136.647111a18.204444 18.204444 0 0 1 18.204444-18.204444h228.295111V87.608889A30.72 30.72 0 0 0 334.165333 56.888889H136.647111C92.615111 56.888889 56.888889 92.615111 56.888889 136.647111V310.613333a30.72 30.72 0 0 0 61.553778 0zM310.044444 887.523556H129.706667a16.668444 16.668444 0 0 1-16.611556-16.611556v-183.523556a28.103111 28.103111 0 0 0-56.206222 0v183.523556c0 40.163556 32.654222 72.817778 72.817778 72.817778h180.394666a28.103111 28.103111 0 0 0 0-56.206222z m600.860445-200.135112v183.523556a16.668444 16.668444 0 0 1-16.611556 16.611556h-182.727111a28.103111 28.103111 0 0 0 0 56.206222h182.727111a72.817778 72.817778 0 0 0 72.817778-72.817778v-183.523556a28.103111 28.103111 0 0 0-56.206222 0z" fill="#2c2c2c" p-id="5598"></path></svg>