<?xml version="1.0" standalone="no"?><!DOCTYPE svg PUBLIC "-//W3C//DTD SVG 1.1//EN" "http://www.w3.org/Graphics/SVG/1.1/DTD/svg11.dtd"><svg t="1677743913324" class="icon" viewBox="0 0 1024 1024" version="1.1" xmlns="http://www.w3.org/2000/svg" p-id="3338" xmlns:xlink="http://www.w3.org/1999/xlink" width="200" height="200"><path d="M400.924471 856.656781c2.856309 2.856663 8.375555 1.968781 12.326929-1.981886l99.271696-99.271341c3.951021-3.951729 4.838194-9.470266 1.981885-12.327992L149.539898 378.111187c-2.857017-2.856663-8.375555-1.969135-12.327284 1.981885l-99.270987 99.271342c-3.951021 3.951729-4.838548 9.470975-1.981885 12.327992L400.924471 856.656781z" fill="#2c2c2c" p-id="3339"></path><path d="M300.951182 740.852493c-4.473054 4.473762-4.897693 11.303404-0.945964 15.255133l99.271342 99.270633c3.951375 3.951375 10.781371 3.528152 15.254778-0.944547l571.530577-571.530931c4.474116-4.474116 4.897339-11.304112 0.945964-15.255133l-99.271342-99.270987c-3.951375-3.951729-10.780308-3.528152-15.255133 0.945964L300.951182 740.852493z" fill="#2c2c2c" p-id="3340"></path></svg>