<svg xmlns="http://www.w3.org/2000/svg" xmlns:xlink="http://www.w3.org/1999/xlink" width="135" height="135" viewBox="0 0 135 135">
  <defs>
    <linearGradient id="linear-gradient" x1="0.932" y1="0.951" x2="0.026" y2="0.041" gradientUnits="objectBoundingBox">
      <stop offset="0" stop-color="#e25a1b"/>
      <stop offset="1" stop-color="#ff8a54"/>
    </linearGradient>
    <linearGradient id="linear-gradient-2" x1="0.5" x2="0.5" y2="1" gradientUnits="objectBoundingBox">
      <stop offset="0" stop-color="#fff"/>
      <stop offset="1" stop-color="#fffbf2"/>
    </linearGradient>
  </defs>
  <g id="logo1" transform="translate(-1529 -97)">
    <rect id="矩形" width="135" height="135" rx="24" transform="translate(1529 97)" fill="url(#linear-gradient)"/>
    <path id="联合_3" data-name="联合 3" d="M14.66,63.032v-.961c-.142-.025-.285-.05-.426-.08-.116-.024-.23-.053-.345-.08q-.28-.064-.554-.135c-.11-.029-.22-.062-.328-.094-.188-.053-.376-.109-.562-.169l-.3-.1c-.2-.066-.39-.136-.582-.21-.084-.032-.169-.065-.252-.1-.208-.083-.412-.169-.615-.259-.066-.028-.13-.059-.2-.088q-.336-.153-.665-.32l-.122-.063q-.372-.192-.736-.4l-.028-.015a18.125,18.125,0,0,1-4.237-3.412c-.15-.156-.3-.318-.437-.481-.034-.039-.069-.078-.1-.119-.066-.076-.128-.156-.192-.234-.119-.148-.238-.3-.354-.448l-.14-.189q-.171-.23-.334-.467L3.014,54.4q-.172-.258-.336-.52c-.034-.057-.07-.112-.1-.169-.111-.184-.218-.37-.322-.558-.089-.159-.173-.319-.257-.48-.026-.052-.054-.1-.08-.156a17.714,17.714,0,0,1-1.476-4.1L.432,48.4Q.366,48.1.31,47.8C.3,47.771.3,47.74.293,47.708Q.136,46.842.062,45.95c-.007-.07-.011-.138-.016-.208-.012-.179-.023-.358-.03-.538,0-.057,0-.113-.005-.169,0-.177-.009-.353-.009-.532,0-.018,0-.038,0-.059a17.68,17.68,0,0,1,2.876-9.611h0a17.706,17.706,0,0,1,2.874,9.587c0,.027,0,.054,0,.082,0,.291.014.579.034.862l0,.025a12.092,12.092,0,0,0,.235,1.665c.005.02.01.041.014.062.05.229.109.457.173.681.015.054.03.11.046.164A12.488,12.488,0,0,0,6.782,49.4c.02.045.04.087.06.132a12.176,12.176,0,0,0,2.128,3.2l.024.025c.14.151.285.3.434.443.067.066.136.129.205.195.086.082.175.161.263.238s.186.162.28.24c.049.041.1.079.15.12a12.06,12.06,0,0,0,1.272.893l.074.045c.157.095.315.185.478.273l.008,0a12.2,12.2,0,0,0,1.53.693l.134.05q.221.078.446.15l.216.065c.14.04.279.082.42.119s.314.074.471.108c.137.03.275.057.413.082s.293.051.44.072c.092.013.186.024.279.036.162.018.326.034.49.047.078.007.155.014.234.018.244.014.489.024.736.024h0c.247,0,.492-.01.735-.024.079,0,.156-.012.234-.018.165-.013.328-.028.491-.047.093-.012.186-.023.279-.036.146-.021.294-.047.439-.072s.277-.051.413-.082c.157-.034.316-.069.471-.108s.28-.078.42-.119l.216-.065q.225-.072.446-.15l.134-.05a12.127,12.127,0,0,0,1.53-.693l.009,0c.161-.087.32-.178.477-.272l.075-.046a12.16,12.16,0,0,0,1.271-.893c.05-.04.1-.078.151-.12.1-.078.186-.159.279-.239s.177-.159.265-.239c.069-.065.139-.128.205-.195.149-.145.293-.291.433-.443l.025-.025a12.151,12.151,0,0,0,2.127-3.2c.02-.043.04-.086.06-.13a12.015,12.015,0,0,0,.528-1.433c.017-.054.032-.11.047-.164.064-.224.121-.451.173-.681,0-.021.01-.042.014-.062a11.928,11.928,0,0,0,.236-1.665l0-.024c.02-.285.033-.572.033-.863,0-.027,0-.054,0-.083a17.706,17.706,0,0,1,2.875-9.586h0a17.671,17.671,0,0,1,2.877,9.611c0,.021,0,.04,0,.059,0,.177-.005.352-.011.528,0,.057,0,.114,0,.173-.008.179-.017.358-.031.536-.005.07-.011.14-.016.209a17.486,17.486,0,0,1-.23,1.756c-.007.033-.011.065-.017.1-.038.2-.079.4-.122.592l-.007.028a17.827,17.827,0,0,1-.516,1.821v0a17.958,17.958,0,0,1-.958,2.272c-.027.052-.054.1-.081.156-.083.159-.166.318-.252.474-.106.189-.214.378-.326.563-.035.057-.071.111-.1.167-.109.175-.221.349-.337.521-.047.07-.094.139-.142.208-.108.158-.221.313-.334.468l-.139.187c-.117.152-.236.3-.356.449-.062.078-.126.158-.191.234-.033.04-.068.079-.1.119-.144.163-.289.325-.438.481a18.119,18.119,0,0,1-4.236,3.412l-.031.015c-.24.14-.486.274-.735.4l-.121.063q-.33.166-.667.32c-.063.03-.129.06-.193.088q-.3.135-.615.259c-.085.033-.168.066-.254.1-.191.074-.386.144-.582.21l-.3.1c-.185.06-.374.115-.561.17-.109.03-.218.063-.328.092-.184.048-.369.092-.554.135-.116.027-.231.057-.346.08-.141.03-.283.055-.425.08V69.62A6.6,6.6,0,0,1,14.66,63.032Zm50.433-6.487A16,16,0,0,1,63.253,54.2a17.79,17.79,0,0,1-2.876-9.7,11.928,11.928,0,0,0-1.84-6.407l-.007-.009a12.217,12.217,0,0,0-13.744-5.261l-.035.011c-.114.033-.226.065-.338.1l-.049.016-.223.075-.093.032c-.082.029-.164.061-.246.091-.035.013-.067.029-.1.042-.139.055-.277.112-.412.172s-.259.113-.387.174c-.072.035-.143.071-.215.108-.114.055-.228.108-.34.169l-.022.011c-.164.089-.326.183-.485.278l-.045.027a12.2,12.2,0,0,0-1.855,1.383l-.007,0a12.26,12.26,0,0,0-1.47,1.593c-.054.07-.108.14-.161.211-.069.094-.136.187-.2.284-.084.119-.165.241-.245.365-.027.043-.059.085-.086.129A19.006,19.006,0,0,0,34.9,32.47l.007-.009q.31-.336.636-.658c.02-.02.04-.037.06-.055q.292-.287.6-.56l.058-.05q.29-.258.592-.5c.074-.061.151-.119.226-.178.151-.117.3-.234.455-.346.111-.082.225-.161.339-.24s.243-.171.367-.252c.048-.033.1-.062.145-.092a5.366,5.366,0,0,0,.571.78,6.724,6.724,0,0,0,5.237,1.931,20.256,20.256,0,0,0,2.929-.257,13.936,13.936,0,0,0,8.035-3.926c.03.011.058.023.085.035.189.08.375.165.559.251l.256.123c.178.088.353.177.527.271.092.048.183.1.274.149q.243.134.482.275c.1.063.207.127.309.191.142.088.282.176.421.269.124.082.246.166.367.252s.227.158.338.24c.155.112.306.229.457.346.075.06.151.117.225.178.2.162.4.329.592.5l.066.057c.451.4.894.821,1.3,1.267a10.872,10.872,0,0,1,1.841,2.374A17.7,17.7,0,0,1,66.127,44.5a11.9,11.9,0,0,0,1.841,6.38,12.234,12.234,0,0,0,21.763-1.945h-.017a16.032,16.032,0,0,0,.043-8.9h.011a12.221,12.221,0,0,0-21.736-1.917,19.168,19.168,0,0,0-2.875-5.664,17.971,17.971,0,0,1,25.393-1.115,17.767,17.767,0,0,1,5.08,8.161c.038.178.077.356.111.535a19.509,19.509,0,0,1,0,8.9h0a17.746,17.746,0,0,1-5.218,8.706,17.989,17.989,0,0,1-25.43-1.1ZM41.279,60.721v.01a18.069,18.069,0,0,1-5.751-4.194A19.028,19.028,0,0,0,38.4,50.9a12.245,12.245,0,0,0,20.759,0,19.025,19.025,0,0,0,2.875,5.635,18.057,18.057,0,0,1-5.751,4.194v-.01a17.894,17.894,0,0,1-15.009,0ZM7.592,38.1a19,19,0,0,0-2.769-5.485,15.978,15.978,0,0,1,6.3-5.433,16.509,16.509,0,0,1,11.309-.922A26.132,26.132,0,0,1,33.092,5.071,27.042,27.042,0,0,1,48.525.009,27.1,27.1,0,0,1,75.8,20.362a24.458,24.458,0,0,1,13.287,5.985,20.217,20.217,0,0,0-19.4-.45C68.032,1.923,32.984.38,29.013,24.012c-.622,2.773.193,6.643,2.21,8.449A19.04,19.04,0,0,0,28.347,38.1C23.933,30.54,12.008,30.537,7.592,38.1ZM44.106,30.62c-.116,0-.23,0-.345-.009l-.178-.008c-.138-.009-.275-.021-.413-.037-.035,0-.07-.005-.106-.01-.173-.021-.344-.048-.514-.082-.039-.008-.075-.018-.114-.026-.13-.028-.258-.06-.384-.1-.057-.016-.111-.036-.167-.054-.107-.034-.212-.072-.315-.113-.059-.024-.117-.05-.175-.075-.1-.045-.193-.095-.287-.145-.055-.032-.109-.061-.164-.094-.1-.06-.19-.127-.283-.2-.043-.032-.089-.063-.131-.1a3.435,3.435,0,0,1-.372-.353,3.826,3.826,0,0,1-.388-.512l0,0,0,0c-.1-.157-.191-.323-.277-.492l-.031-.059q-.121-.246-.221-.5c-.009-.021-.017-.042-.025-.064-.067-.169-.127-.337-.179-.5l-.01-.026c-.054-.169-.1-.332-.14-.485l0-.011c-.039-.151-.071-.289-.1-.419l-.01-.046c-.024-.121-.043-.226-.057-.319l0-.038a1.83,1.83,0,0,1-.023-.211.023.023,0,0,1,0-.009c0-.047,0-.072.009-.075v-.005h0c.1.041.2.082.306.121l.1.035c.078.027.155.054.238.08l.133.038c.079.023.157.045.242.066.05.013.1.025.158.037.082.02.165.038.252.054l.183.035c.087.015.176.03.268.043l.2.028c.094.012.19.022.289.033l.225.021c.1.008.2.014.309.02.081.005.162.009.246.012.109,0,.223.007.339.008l.273,0,.252-.005c.11,0,.223-.005.339-.011.091,0,.184-.009.278-.014.118-.007.237-.014.36-.024l.3-.025c.126-.012.256-.025.387-.04l.314-.036c.136-.017.275-.037.415-.057.108-.015.215-.03.327-.048.151-.023.307-.05.465-.077.107-.018.213-.036.324-.057.177-.032.36-.07.542-.107.1-.02.195-.038.3-.06.286-.06.58-.126.884-.2a18.115,18.115,0,0,0,6.076-2.983,24.179,24.179,0,0,0,4.343-3.8c-.049.372-.121.744-.2,1.114-.016.077-.034.153-.052.231q-.133.545-.31,1.082c-.016.049-.035.1-.051.145q-.179.514-.4,1.017l-.052.124q-.243.542-.532,1.066l-.075.134A14.918,14.918,0,0,1,55.3,25.513l-.055.07A14.257,14.257,0,0,1,52.45,28.2l-.127.088c-.338.233-.681.455-1.037.655h0a13.556,13.556,0,0,1-4.4,1.435c-.146.022-.31.043-.479.066l-.134.018c-.181.024-.372.047-.572.067l-.108.011c-.2.02-.4.037-.612.05-.017,0-.034,0-.05,0-.218.013-.439.02-.663.022l-.079,0Z" transform="translate(1548 130)" fill="url(#linear-gradient-2)"/>
  </g>
</svg>
