<svg xmlns="http://www.w3.org/2000/svg" xmlns:xlink="http://www.w3.org/1999/xlink" width="597.277" height="53.894" viewBox="0 0 597.277 53.894">
  <defs>
    <linearGradient id="linear-gradient" x1="0.932" y1="0.951" x2="0.026" y2="0.041" gradientUnits="objectBoundingBox">
      <stop offset="0" stop-color="#e25a1b"/>
      <stop offset="1" stop-color="#ff8a54"/>
    </linearGradient>
    <filter id="至轻云-超轻量级大数据平台" x="0" y="0" width="597.277" height="53.894" filterUnits="userSpaceOnUse">
      <feOffset dx="2" dy="2" input="SourceAlpha"/>
      <feGaussianBlur stdDeviation="1" result="blur"/>
      <feFlood flood-color="#e86427" flood-opacity="0.251"/>
      <feComposite operator="in" in2="blur"/>
      <feComposite in="SourceGraphic"/>
    </filter>
  </defs>
  <g transform="matrix(1, 0, 0, 1, 0, 0)" filter="url(#至轻云-超轻量级大数据平台)">
    <g id="至轻云-超轻量级大数据平台-2" data-name="至轻云-超轻量级大数据平台" transform="translate(296.49 38.06)" stroke-miterlimit="10" fill="url(#linear-gradient)">
      <path d="M -42.18000411987305 7.726152896881104 L -44.61269760131836 5.794768333435059 L -49.99581527709961 1.520897269248962 C -50.4313850402832 2.498309135437012 -50.95919799804688 3.615824699401855 -51.57477188110352 4.863614559173584 L -51.98738861083984 5.69999885559082 L -52.92000579833984 5.69999885559082 L -59.0940055847168 5.69999885559082 L -61.7021598815918 5.69999885559082 L -60.39054107666016 3.445691347122192 C -58.85248565673828 0.8021633625030518 -57.52144622802734 -1.807028412818909 -56.42544174194336 -4.325948238372803 L -58.55971527099609 -6.029780387878418 C -59.28731536865234 -2.385977506637573 -60.38058471679688 1.234976530075073 -61.82107925415039 4.766537189483643 L -62.20185089111328 5.69999885559082 L -63.21000289916992 5.69999885559082 L -69.30000305175781 5.69999885559082 L -71.72708129882812 5.69999885559082 L -70.88258361816406 4.011061668395996 L -81.71562194824219 5.352614402770996 L -83.40000152587891 5.561229705810547 L -83.40000152587891 3.863998889923096 L -83.40000152587891 -1.512001037597656 L -83.40000152587891 -2.836154937744141 L -82.08608245849609 -3.000385761260986 L -71.72116088867188 -4.296000957489014 L -81.01800537109375 -4.296000957489014 L -83.26654052734375 -4.296000957489014 L -82.40292358398438 -6.372077941894531 L -78.77906036376953 -15.08399200439453 L -82.99908447265625 -17.22646331787109 L -84.2423095703125 -17.85769271850586 L -83.70346832275391 -19.1436939239502 L -77.40346527099609 -34.17969512939453 L -77.01785278320312 -35.10000228881836 L -76.02000427246094 -35.10000228881836 L -70.39200592041016 -35.10000228881836 L -68.12139129638672 -35.10000228881836 L -68.30055236816406 -34.68000030517578 L -67.45200347900391 -34.68000030517578 L -47.54400253295898 -34.68000030517578 L -45.67323303222656 -34.68000030517578 L -46.07984924316406 -32.85392379760742 L -47.89920425415039 -24.68400192260742 L -44.43600463867188 -24.68400192260742 L -42.74192810058594 -24.68400192260742 L -42.94700241088867 -23.00238609313965 C -43.37031173706055 -19.53184700012207 -43.89315795898438 -16.30938529968262 -44.50123596191406 -13.42461681365967 C -45.03684616088867 -10.8838472366333 -45.69543838500977 -8.399188995361328 -46.46279144287109 -6.023356437683105 L -42.74562072753906 -3.063385725021362 L -42.18000411987305 -2.613001108169556 L -42.18000411987305 -1.890001058578491 L -42.18000411987305 4.619998931884766 L -42.18000411987305 7.726152896881104 Z M -57.47029495239258 -15.81136703491211 L -52.99557113647461 -12.24816131591797 C -52.60144805908203 -13.6386022567749 -52.24380493164062 -15.10764312744141 -51.92543029785156 -16.64400100708008 L -56.02800369262695 -16.64400100708008 L -57.43466186523438 -16.64400100708008 C -57.44497680664062 -16.36513900756836 -57.45685958862305 -16.0875072479248 -57.47029495239258 -15.81136703491211 Z M -69.90699768066406 -12.50400066375732 L -67.53600311279297 -12.50400066375732 L -66.03600311279297 -12.50400066375732 L -66.03600311279297 -12.33262729644775 C -65.79676818847656 -14.58897686004639 -65.67600250244141 -16.9557991027832 -65.67600250244141 -19.40400123596191 L -65.67600250244141 -22.67013931274414 L -69.90699768066406 -12.50400066375732 Z M -57.38400268554688 -26.59800148010254 L -57.38400268554688 -19.40400123596191 C -57.38400268554688 -19.25487327575684 -57.38445281982422 -19.10583877563477 -57.38533020019531 -18.9569034576416 L -55.70880508422852 -26.59800148010254 L -57.38400268554688 -26.59800148010254 Z M -71.56128692626953 -27.03600120544434 L -68.95200347900391 -27.03600120544434 L -68.95200347900391 -28.09800148010254 L -68.95200347900391 -33.15283966064453 L -69.01231384277344 -33.0114631652832 L -71.56128692626953 -27.03600120544434 Z M 150.1799926757812 7.225845336914062 L 148.0038452148438 6.126998901367188 L 140.3199462890625 2.247015237808228 C 136.9016418457031 4.511383533477783 132.6999053955078 5.672405242919922 127.8144607543945 5.69999885559082 L 126.3059921264648 5.708460330963135 L 126.3059921264648 4.19999885559082 L 126.3059921264648 -0.4620010256767273 L 126.3059921264648 -1.920154929161072 L 127.7635345458984 -1.961385607719421 C 129.0211486816406 -1.996998906135559 130.1884613037109 -2.113052368164062 131.2592926025391 -2.308314561843872 L 129.1511535644531 -3.362385749816895 L 127.8756866455078 -4.000154972076416 L 128.4482269287109 -5.30623197555542 L 128.8706970214844 -6.27000093460083 L 127.8059921264648 -6.27000093460083 L 126.3059921264648 -6.27000093460083 L 126.3059921264648 -7.77000093460083 L 126.3059921264648 -12.30600070953369 L 126.3059921264648 -13.57800102233887 L 125.3020706176758 -13.57800102233887 L 126.5359191894531 -15.80492401123047 C 127.3179931640625 -17.21651077270508 127.9681243896484 -18.73577690124512 128.4775390625 -20.34000015258789 L 127.8059921264648 -20.34000015258789 L 126.3059921264648 -20.34000015258789 L 126.3059921264648 -21.84000015258789 L 126.3059921264648 -26.62800025939941 L 126.3059921264648 -28.12800025939941 L 127.8059921264648 -28.12800025939941 L 128.7113494873047 -28.12800025939941 L 127.3709182739258 -32.85477066040039 L 126.829460144043 -34.76399993896484 L 128.8139953613281 -34.76399993896484 L 133.3919982910156 -34.76399993896484 L 134.4539947509766 -34.76399993896484 L 134.4539947509766 -35.18400192260742 L 135.9539947509766 -35.18400192260742 L 140.8259887695312 -35.18400192260742 L 142.3259887695312 -35.18400192260742 L 142.3259887695312 -34.76399993896484 L 143.3459930419922 -34.76399993896484 L 147.9660034179688 -34.76399993896484 L 149.9505310058594 -34.76399993896484 L 149.4090728759766 -32.85477066040039 L 148.0686492919922 -28.12800025939941 L 148.9739990234375 -28.12800025939941 L 149.3319244384766 -28.12800025939941 C 149.6639709472656 -30.11800384521484 149.9293670654297 -32.14588165283203 150.1268463134766 -34.20515441894531 L 150.2569122314453 -35.5620002746582 L 151.6199951171875 -35.5620002746582 L 156.7859954833984 -35.5620002746582 L 158.4125366210938 -35.5620002746582 L 158.2810668945312 -33.94076919555664 C 158.2250671386719 -33.24953079223633 158.1379089355469 -32.40029907226562 158.0208740234375 -31.40400123596191 L 166.3199920654297 -31.40400123596191 L 167.8199920654297 -31.40400123596191 L 167.8199920654297 -29.90400123596191 L 167.8199920654297 -24.44400024414062 L 167.8199920654297 -22.94400024414062 L 166.3199920654297 -22.94400024414062 L 166.1477355957031 -22.94400024414062 C 165.9502258300781 -20.74661254882812 165.67333984375 -18.56125259399414 165.3219909667969 -16.43007850646973 L 165.3197631835938 -16.4161548614502 L 165.3171539306641 -16.40223121643066 C 164.7581481933594 -13.36758327484131 164.0391693115234 -10.51578712463379 163.1780090332031 -7.915997505187988 L 167.9099884033203 3.192152738571167 L 168.7993774414062 5.279998779296875 L 166.5299987792969 5.279998779296875 L 161.1119995117188 5.279998779296875 L 160.1140747070312 5.279998779296875 L 159.7284545898438 4.359614372253418 L 158.3375244140625 1.039306163787842 C 157.7332763671875 2.090835094451904 157.0229797363281 3.271415233612061 156.2107696533203 4.573768138885498 L 155.7703094482422 5.279998779296875 L 154.93798828125 5.279998779296875 L 150.1799926757812 5.279998779296875 L 150.1799926757812 7.225845336914062 Z M 145.7958068847656 -3.261545658111572 L 149.3682250976562 -1.416770219802856 L 149.8632507324219 -1.161169648170471 C 151.1612396240234 -3.166576623916626 152.2605285644531 -5.061493873596191 153.1490173339844 -6.82623291015625 L 150.8939971923828 -13.44094467163086 L 150.8939971923828 -12.30600070953369 L 150.8939971923828 -7.77000093460083 L 150.8939971923828 -6.27000093460083 L 149.3939971923828 -6.27000093460083 L 147.4968109130859 -6.27000093460083 C 146.9728088378906 -5.184258937835693 146.4042510986328 -4.178803443908691 145.7958068847656 -3.261545658111572 Z M 140.7322082519531 -13.80600070953369 L 143.1789093017578 -13.80600070953369 L 142.8793029785156 -14.42138576507568 C 142.6853790283203 -14.81975650787354 142.5008850097656 -15.22336196899414 142.3259887695312 -15.6317663192749 L 142.3259887695312 -15.41400146484375 L 142.3259887695312 -13.91400146484375 L 140.8259887695312 -13.91400146484375 L 140.7798004150391 -13.91400146484375 L 140.7322082519531 -13.80600070953369 Z M 156.4807281494141 -21.74277877807617 L 157.5351257324219 -18.15784454345703 C 157.8147125244141 -19.66268920898438 158.0486450195312 -21.26040649414062 158.2356567382812 -22.94400024414062 L 156.7173461914062 -22.94400024414062 L 156.4807281494141 -21.74277877807617 Z M 125.4839935302734 6.667845249176025 L 123.5315322875977 6.050152778625488 C 118.4149932861328 4.431383609771729 114.2263031005859 2.297922134399414 111.0816116333008 -0.2909241020679474 C 108.6567459106445 -2.287245512008667 106.6303939819336 -4.682302474975586 105.0332260131836 -7.43549108505249 C 103.4197082519531 -4.682292938232422 101.3850479125977 -2.287036657333374 98.96038055419922 -0.2909241020679474 C 95.81568908691406 2.297922134399414 91.62699890136719 4.431383609771729 86.51045989990234 6.050152778625488 L 84.55799865722656 6.667845249176025 L 84.55799865722656 4.619998931884766 L 84.55799865722656 -1.386000990867615 L 84.55799865722656 -2.394616365432739 L 85.49207305908203 -2.775154829025269 C 88.38983917236328 -3.955770254135132 90.81991577148438 -5.253077983856201 92.71476745605469 -6.631077766418457 C 94.55645751953125 -7.970539569854736 96.13861083984375 -9.658154487609863 97.41722869873047 -11.64715480804443 C 98.44263458251953 -13.24224376678467 99.36378479003906 -15.19956016540527 100.1654205322266 -17.48400115966797 L 86.09999847412109 -17.48400115966797 L 84.59999847412109 -17.48400115966797 L 84.59999847412109 -18.98400115966797 L 84.59999847412109 -24.44400024414062 L 84.59999847412109 -25.94400024414062 L 86.09999847412109 -25.94400024414062 L 100.7633895874023 -25.94400024414062 L 100.7279968261719 -34.01338577270508 L 100.7213821411133 -35.52000045776367 L 102.2279968261719 -35.52000045776367 L 107.7719955444336 -35.52000045776367 L 109.2719955444336 -35.52000045776367 L 109.2719955444336 -34.02000045776367 L 109.2719955444336 -25.94400024414062 L 123.8999938964844 -25.94400024414062 L 125.3999938964844 -25.94400024414062 L 125.3999938964844 -24.44400024414062 L 125.3999938964844 -18.98400115966797 L 125.3999938964844 -17.48400115966797 L 123.8999938964844 -17.48400115966797 L 109.8765716552734 -17.48400115966797 C 110.6782073974609 -15.19956016540527 111.5993576049805 -13.24224376678467 112.6247634887695 -11.64715480804443 C 113.9033813476562 -9.658154487609863 115.4855346679688 -7.970539569854736 117.3272247314453 -6.631077766418457 C 119.2220764160156 -5.253077983856201 121.6521530151367 -3.955770254135132 124.549919128418 -2.775154829025269 L 125.4839935302734 -2.394616365432739 L 125.4839935302734 -1.386000990867615 L 125.4839935302734 4.619998931884766 L 125.4839935302734 6.667845249176025 Z M -29.55600357055664 6.238845348358154 L -29.55600357055664 5.69999885559082 L -30.66000366210938 5.69999885559082 L -38.93400573730469 5.69999885559082 L -40.43400573730469 5.69999885559082 L -40.43400573730469 4.19999885559082 L -40.43400573730469 -0.8820010423660278 L -40.43400573730469 -2.382000923156738 L -38.93400573730469 -2.382000923156738 L -37.62000274658203 -2.382000923156738 L -37.62000274658203 -7.120912551879883 L -39.68246459960938 -6.572385787963867 L -41.5680046081543 -6.070924282073975 L -41.5680046081543 -8.022001266479492 L -41.5680046081543 -13.86000061035156 L -41.5680046081543 -15.01323223114014 L -40.45354080200195 -15.30961608886719 L -37.62000274658203 -16.06321716308594 L -37.62000274658203 -21.18000030517578 L -39.64800262451172 -21.18000030517578 L -41.14800262451172 -21.18000030517578 L -41.14800262451172 -22.68000030517578 L -41.14800262451172 -27.97200012207031 L -41.14800262451172 -29.47200012207031 L -39.64800262451172 -29.47200012207031 L -37.62000274658203 -29.47200012207031 L -37.62000274658203 -33.81000137329102 L -37.62000274658203 -35.31000137329102 L -36.12000274658203 -35.31000137329102 L -30.66000366210938 -35.31000137329102 L -29.16000366210938 -35.31000137329102 L -29.16000366210938 -33.81000137329102 L -29.16000366210938 -29.47200012207031 L -27.72000503540039 -29.47200012207031 L -27.0360050201416 -29.47200012207031 L -27.0360050201416 -33.60000228881836 L -27.0360050201416 -35.10000228881836 L -25.5360050201416 -35.10000228881836 L -20.16000366210938 -35.10000228881836 L -18.66000366210938 -35.10000228881836 L -18.66000366210938 -33.60000228881836 L -18.66000366210938 -25.44000053405762 L -15.83400440216064 -25.44000053405762 L -15.61200428009033 -25.44000053405762 L -15.61200428009033 -33.60000228881836 L -15.61200428009033 -35.10000228881836 L -14.11200428009033 -35.10000228881836 L -8.736003875732422 -35.10000228881836 L -7.23600435256958 -35.10000228881836 L -7.23600435256958 -33.60000228881836 L -7.23600435256958 -25.51566505432129 C -5.524266719818115 -25.90694808959961 -3.950604200363159 -26.2998161315918 -2.540234804153442 -26.68815422058105 L -0.642004132270813 -27.21084785461426 L -0.642004132270813 -25.24200057983398 L -0.642004132270813 -19.7400016784668 L -0.642004132270813 -18.62253952026367 L -1.712696433067322 -18.30277061462402 C -3.515609979629517 -17.76422119140625 -5.36826229095459 -17.3070182800293 -7.23600435256958 -16.93929672241211 L -7.23600435256958 -3.096001148223877 L -1.638004183769226 -3.096001148223877 L -0.1380041539669037 -3.096001148223877 L -0.1380041539669037 -1.596001029014587 L -0.1380041539669037 3.613660573959351 L 0.3128420114517212 3.151998996734619 C 3.383587121963501 0.007539226673543453 5.903717517852783 -3.089617013931274 7.817587375640869 -6.069534301757812 L 1.596995830535889 -12.66261672973633 L 0.5747950077056885 -13.74600124359131 L -1.126311898231506 -13.74600124359131 L -0.5518056154251099 -14.94003391265869 L -0.7895426154136658 -15.19200134277344 L -0.4305724203586578 -15.19200134277344 L -0.09169645607471466 -15.89630889892578 C 2.680303573608398 -21.65769386291504 4.471303462982178 -27.6763858795166 5.231457233428955 -33.78523254394531 L 5.395072937011719 -35.10000228881836 L 6.719995975494385 -35.10000228881836 L 12.34799575805664 -35.10000228881836 L 14.03484153747559 -35.10000228881836 L 13.83768844604492 -33.42477035522461 C 13.74033260345459 -32.59711456298828 13.62806415557861 -31.78104019165039 13.50204944610596 -30.98400115966797 L 21.20999526977539 -30.98400115966797 L 22.79353523254395 -30.98400115966797 L 22.70776557922363 -29.40277099609375 C 22.45307350158691 -24.70407867431641 21.94915008544922 -20.46977043151855 21.21022605895996 -16.81753921508789 C 20.53497695922852 -13.48032474517822 19.54082489013672 -10.29412269592285 18.25112152099609 -7.331028461456299 L 22.38765907287598 -3.096001148223877 L 23.19599533081055 -3.096001148223877 L 23.19599533081055 -33.60000228881836 L 23.19599533081055 -35.10000228881836 L 24.69599533081055 -35.10000228881836 L 30.15599632263184 -35.10000228881836 L 31.65599632263184 -35.10000228881836 L 31.65599632263184 -33.60000228881836 L 31.65599632263184 -30.52200126647949 L 36.7079963684082 -30.52200126647949 L 37.86138153076172 -30.52200126647949 L 38.15768814086914 -29.40738487243652 C 39.94230270385742 -22.69361686706543 40.97637939453125 -15.55838584899902 41.23107147216797 -8.199924468994141 L 41.28484344482422 -6.648001194000244 L 39.73199462890625 -6.648001194000244 L 34.56599426269531 -6.648001194000244 L 33.11861038208008 -6.648001194000244 L 33.06691741943359 -8.094462394714355 C 32.9164924621582 -12.30705738067627 32.44384384155273 -16.51987457275391 31.65599632263184 -20.68938255310059 L 31.65599632263184 -3.096001148223877 L 39.89999771118164 -3.096001148223877 L 41.39999771118164 -3.096001148223877 L 41.39999771118164 -1.596001029014587 L 41.39999771118164 3.779999017715454 L 41.39999771118164 5.279998779296875 L 39.89999771118164 5.279998779296875 L 19.1099967956543 5.279998779296875 L 18.46230316162109 5.279998779296875 L 18.01815032958984 4.808537483215332 L 13.85704898834229 0.3913685977458954 C 12.79512786865234 1.916881322860718 11.52871417999268 3.52326488494873 10.07576465606689 5.186768054962158 L 9.627457618713379 5.69999885559082 L 8.945996284484863 5.69999885559082 L 1.385995864868164 5.69999885559082 L -2.17546558380127 5.69999885559082 L -1.847337245941162 5.363998889923096 L -14.11200428009033 5.363998889923096 L -15.61200428009033 5.363998889923096 L -15.61200428009033 3.863998889923096 L -15.61200428009033 3.786165475845337 L -27.79615783691406 5.929306507110596 L -29.55600357055664 6.238845348358154 Z M -29.16000366210938 -9.34293270111084 L -29.16000366210938 -2.414591073989868 L -28.32646560668945 -2.567385673522949 L -27.0360050201416 -2.803970336914062 L -27.0360050201416 -9.900483131408691 L -29.16000366210938 -9.34293270111084 Z M -18.66000366210938 -16.98000144958496 L -18.66000366210938 -4.265865325927734 L -15.61200428009033 -4.803747653961182 L -15.61200428009033 -16.98000144958496 L -15.83400440216064 -16.98000144958496 L -18.66000366210938 -16.98000144958496 Z M 8.928062438964844 -15.19200134277344 L 9.953995704650879 -15.19200134277344 L 10.58322620391846 -15.19200134277344 L 11.02414989471436 -14.74307823181152 L 11.68914318084717 -14.065993309021 C 12.55724620819092 -16.61275291442871 13.21844673156738 -19.44385147094727 13.66406631469727 -22.52400016784668 L 11.62910556793213 -22.52400016784668 C 10.88309001922607 -20.01978492736816 9.97724723815918 -17.5606632232666 8.928062438964844 -15.19200134277344 Z M -29.16000366210938 -21.18000030517578 L -29.16000366210938 -18.28256988525391 L -27.68085098266602 -18.67084693908691 L -27.0360050201416 -18.84010887145996 L -27.0360050201416 -21.18000030517578 L -27.72000503540039 -21.18000030517578 L -29.16000366210938 -21.18000030517578 Z M 188.3729248046875 5.74199914932251 L 187.2779998779297 5.74199914932251 L 181.3139953613281 5.74199914932251 L 179.182373046875 5.74199914932251 L 179.1974487304688 5.69999885559082 L 171.0659942626953 5.69999885559082 L 169.5659942626953 5.69999885559082 L 169.5659942626953 4.19999885559082 L 169.5659942626953 -0.8820010423660278 L 169.5659942626953 -2.382000923156738 L 171.0659942626953 -2.382000923156738 L 172.5899963378906 -2.382000923156738 L 172.5899963378906 -7.146170616149902 L 170.2992248535156 -6.56769323348999 L 168.4319915771484 -6.096154689788818 L 168.4319915771484 -8.022001266479492 L 168.4319915771484 -13.86000061035156 L 168.4319915771484 -15.0283088684082 L 169.5647583007812 -15.31430912017822 L 172.5899963378906 -16.07825660705566 L 172.5899963378906 -21.18000030517578 L 170.3519897460938 -21.18000030517578 L 168.8519897460938 -21.18000030517578 L 168.8519897460938 -22.68000030517578 L 168.8519897460938 -27.97200012207031 L 168.8519897460938 -29.47200012207031 L 170.3519897460938 -29.47200012207031 L 172.5899963378906 -29.47200012207031 L 172.5899963378906 -33.81000137329102 L 172.5899963378906 -35.31000137329102 L 174.0899963378906 -35.31000137329102 L 179.5500030517578 -35.31000137329102 L 181.0500030517578 -35.31000137329102 L 181.0500030517578 -33.81000137329102 L 181.0500030517578 -29.47200012207031 L 182.9099884033203 -29.47200012207031 L 183.0059967041016 -29.47200012207031 L 183.0059967041016 -33.34799957275391 L 183.0059967041016 -34.84799957275391 L 184.5059967041016 -34.84799957275391 L 207.7740020751953 -34.84799957275391 L 209.2740020751953 -34.84799957275391 L 209.2740020751953 -33.34799957275391 L 209.2740020751953 -21.21000099182129 L 209.2740020751953 -19.71000099182129 L 207.7740020751953 -19.71000099182129 L 203.0159912109375 -19.71000099182129 L 203.0159912109375 -19.56000137329102 L 208.739990234375 -19.56000137329102 L 210.239990234375 -19.56000137329102 L 210.239990234375 -18.06000137329102 L 210.239990234375 -15.82200145721436 L 211.6799926757812 -15.82200145721436 L 216.2374572753906 -15.82200145721436 L 213.5959930419922 -25.21384811401367 L 213.3484649658203 -26.09400177001953 L 212.5619964599609 -26.09400177001953 L 211.0619964599609 -26.09400177001953 L 211.0619964599609 -27.59400177001953 L 211.0619964599609 -32.88600158691406 L 211.0619964599609 -34.38600158691406 L 212.5619964599609 -34.38600158691406 L 249.43798828125 -34.38600158691406 L 250.93798828125 -34.38600158691406 L 250.93798828125 -32.88600158691406 L 250.93798828125 -27.59400177001953 L 250.93798828125 -26.09400177001953 L 249.43798828125 -26.09400177001953 L 248.6515197753906 -26.09400177001953 L 248.4039916992188 -25.21384811401367 L 245.7625427246094 -15.82200145721436 L 250.3199920654297 -15.82200145721436 L 251.8199920654297 -15.82200145721436 L 251.8199920654297 -14.32200145721436 L 251.8199920654297 -9.030000686645508 L 251.8199920654297 -7.530001163482666 L 250.3199920654297 -7.530001163482666 L 235.2299957275391 -7.530001163482666 L 235.2299957275391 4.19999885559082 L 235.2299957275391 5.69999885559082 L 233.7299957275391 5.69999885559082 L 228.2699890136719 5.69999885559082 L 226.7699890136719 5.69999885559082 L 226.7699890136719 4.19999885559082 L 226.7699890136719 -7.530001163482666 L 211.6799926757812 -7.530001163482666 L 210.1799926757812 -7.530001163482666 L 210.1799926757812 -9.030000686645508 L 210.1799926757812 -11.60400104522705 L 208.739990234375 -11.60400104522705 L 203.0159912109375 -11.60400104522705 L 203.0159912109375 -11.16000080108643 L 207.6479949951172 -11.16000080108643 L 209.1479949951172 -11.16000080108643 L 209.1479949951172 -9.660000801086426 L 209.1479949951172 4.19999885559082 L 209.1479949951172 5.69999885559082 L 207.6479949951172 5.69999885559082 L 190.0919952392578 5.69999885559082 L 188.5919952392578 5.69999885559082 L 188.5919952392578 5.057345867156982 L 188.3729248046875 5.74199914932251 Z M 181.0500030517578 -9.251117706298828 L 181.0500030517578 0.4076483249664307 C 181.4004974365234 -0.6604918241500854 181.6861572265625 -1.596213102340698 181.9044647216797 -2.391847133636475 C 182.313232421875 -3.881924152374268 182.6012268066406 -5.511693477630615 182.7603759765625 -7.235846996307373 C 182.8275604248047 -7.963569164276123 182.8810729980469 -8.796106338500977 182.9207763671875 -9.729206085205078 L 181.0500030517578 -9.251117706298828 Z M 196.7579956054688 -1.920001029968262 L 200.9819946289062 -1.920001029968262 L 200.9819946289062 -3.540001153945923 L 196.7579956054688 -3.540001153945923 L 196.7579956054688 -1.920001029968262 Z M 191.2669982910156 -11.16000080108643 L 194.7239990234375 -11.16000080108643 L 194.7239990234375 -11.60400104522705 L 191.2887115478516 -11.60400104522705 C 191.2819976806641 -11.45731925964355 191.2747497558594 -11.30908584594727 191.2669982910156 -11.16000080108643 Z M 235.2299957275391 -15.82200145721436 L 237.0600891113281 -15.82200145721436 L 237.2839965820312 -16.61815452575684 L 239.9299926757812 -26.02615547180176 L 239.9490814208984 -26.09400177001953 L 235.2299957275391 -26.09400177001953 L 235.2299957275391 -15.82200145721436 Z M 224.9398956298828 -15.82200145721436 L 226.7699890136719 -15.82200145721436 L 226.7699890136719 -26.09400177001953 L 222.0509185791016 -26.09400177001953 L 222.0699920654297 -26.02615547180176 L 224.7160034179688 -16.61815452575684 L 224.9398956298828 -15.82200145721436 Z M 181.0500030517578 -21.18000030517578 L 181.0500030517578 -18.18555068969727 L 182.9586181640625 -18.67330932617188 L 183.0059967041016 -18.68541717529297 L 183.0059967041016 -21.18000030517578 L 182.9099884033203 -21.18000030517578 L 181.0500030517578 -21.18000030517578 Z M 191.3819885253906 -19.56000137329102 L 194.7239990234375 -19.56000137329102 L 194.7239990234375 -19.71000099182129 L 191.3819885253906 -19.71000099182129 L 191.3819885253906 -19.56000137329102 Z M 191.3819885253906 -27.24600028991699 L 200.8139953613281 -27.24600028991699 L 200.8139953613281 -27.3120002746582 L 191.3819885253906 -27.3120002746582 L 191.3819885253906 -27.24600028991699 Z M -151.7160034179688 5.69999885559082 L -153.2160034179688 5.69999885559082 L -158.5500030517578 5.69999885559082 L -160.0500030517578 5.69999885559082 L -160.0500030517578 4.19999885559082 L -160.0500030517578 0.1154729723930359 L -166.0876922607422 1.061922073364258 L -167.8200073242188 1.333460450172424 L -167.8200073242188 -0.4200010299682617 L -167.8200073242188 -5.838001251220703 L -167.8200073242188 -7.12115478515625 L -166.5523071289062 -7.319923877716064 L -160.0500030517578 -8.339204788208008 L -160.0500030517578 -9.966001510620117 L -166.3619995117188 -9.966001510620117 L -168.2283172607422 -9.966001510620117 L -167.8269348144531 -11.78861618041992 L -165.1203308105469 -24.07800102233887 L -165.9000091552734 -24.07800102233887 L -167.4000091552734 -24.07800102233887 L -167.4000091552734 -25.57800102233887 L -167.4000091552734 -30.78600120544434 L -167.4000091552734 -32.2859992980957 L -165.9000091552734 -32.2859992980957 L -163.3213195800781 -32.2859992980957 L -162.9537658691406 -33.92769241333008 L -162.6913146972656 -35.10000228881836 L -161.4900054931641 -35.10000228881836 L -156.1139984130859 -35.10000228881836 L -154.2681579589844 -35.10000228881836 L -154.6456909179688 -33.29323196411133 L -154.8561553955078 -32.2859992980957 L -149.7300109863281 -32.2859992980957 L -149.6340026855469 -32.2859992980957 L -149.6340026855469 -33.09600067138672 L -149.6340026855469 -34.59600067138672 L -148.1340026855469 -34.59600067138672 L -129.1080017089844 -34.59600067138672 L -127.1833877563477 -34.59600067138672 L -127.6533889770508 -32.72969436645508 C -128.4698944091797 -29.48776245117188 -129.7476806640625 -26.62630271911621 -131.4611358642578 -24.1965389251709 L -127.4853897094727 -22.55438613891602 L -126.5580062866211 -22.17138481140137 L -126.5580062866211 -21.16800117492676 L -126.5580062866211 -15.87600135803223 L -126.5580062866211 -13.66738605499268 L -127.4820022583008 -14.03388404846191 L -127.4820022583008 -9.156001091003418 L -127.4820022583008 -7.656001091003418 L -128.9820098876953 -7.656001091003418 L -134.2860107421875 -7.656001091003418 L -134.2860107421875 -2.928000926971436 L -127.6800079345703 -2.928000926971436 L -126.1800079345703 -2.928000926971436 L -126.1800079345703 -1.428001046180725 L -126.1800079345703 3.737998962402344 L -126.1800079345703 5.237998962402344 L -127.6800079345703 5.237998962402344 L -149.2680053710938 5.237998962402344 L -150.7680053710938 5.237998962402344 L -150.7680053710938 3.737998962402344 L -150.7680053710938 -1.34315025806427 L -151.7160034179688 -1.194668292999268 L -151.7160034179688 4.19999885559082 L -151.7160034179688 5.69999885559082 Z M -148.2300109863281 -2.928000926971436 L -142.6620025634766 -2.928000926971436 L -142.6620025634766 -7.656001091003418 L -148.2180023193359 -7.656001091003418 L -148.2300109863281 -7.656001091003418 L -148.2300109863281 -3.024001121520996 L -148.2300109863281 -2.928000926971436 Z M -151.7160034179688 -9.966001510620117 L -151.7160034179688 -9.649212837219238 L -149.9620819091797 -9.923924446105957 L -149.7180023193359 -9.962155342102051 L -149.7180023193359 -9.966001510620117 L -149.8140106201172 -9.966001510620117 L -151.7160034179688 -9.966001510620117 Z M -142.7790832519531 -15.82200145721436 L -131.9902954101562 -15.82200145721436 L -137.8434143066406 -18.14349365234375 C -139.3549499511719 -17.19711875915527 -141.0034942626953 -16.42208480834961 -142.7790832519531 -15.82200145721436 Z M -151.7160034179688 -18.25800132751465 L -150.4739990234375 -18.25800132751465 L -150.4739990234375 -21.37800025939941 L -150.4739990234375 -22.64984703063965 L -149.2193145751953 -22.85784721374512 C -146.8678436279297 -23.24753952026367 -144.7701568603516 -23.95000076293945 -142.9844665527344 -24.94561576843262 C -142.2263031005859 -25.36834335327148 -141.5137939453125 -25.85002899169922 -140.8500366210938 -26.38800048828125 L -148.1340026855469 -26.38800048828125 L -148.2300109863281 -26.38800048828125 L -148.2300109863281 -25.57800102233887 L -148.2300109863281 -24.07800102233887 L -149.7300109863281 -24.07800102233887 L -151.7160034179688 -24.07800102233887 L -151.7160034179688 -23.10000038146973 L -151.7160034179688 -18.25800132751465 Z M -202.5223083496094 5.69999885559082 L -203.7420043945312 5.69999885559082 L -208.7400054931641 5.69999885559082 L -210.6451568603516 5.69999885559082 L -210.5437774658203 5.279998779296875 L -211.6800079345703 5.279998779296875 L -232.260009765625 5.279998779296875 C -234.8804626464844 5.279998779296875 -237.1203155517578 5.124460697174072 -238.9174652099609 4.817614555358887 C -240.1233520507812 4.611738681793213 -241.2633514404297 4.308897495269775 -242.3243560791016 3.913349866867065 C -242.4235534667969 4.257163047790527 -242.5000305175781 4.509405612945557 -242.5550079345703 4.674306869506836 L -242.8968505859375 5.69999885559082 L -243.9779968261719 5.69999885559082 L -249.8160095214844 5.69999885559082 L -251.9477691650391 5.69999885559082 L -251.2278442382812 3.693460464477539 C -249.9433898925781 0.1132297292351723 -248.9885406494141 -3.247385740280151 -248.3898468017578 -6.295155048370361 C -247.8800506591797 -8.890589714050293 -247.5341949462891 -11.70123386383057 -247.3587646484375 -14.67000102996826 L -250.7400054931641 -14.67000102996826 L -252.2400054931641 -14.67000102996826 L -252.2400054931641 -16.17000198364258 L -252.2400054931641 -21.63000106811523 L -252.2400054931641 -23.13000106811523 L -250.7400054931641 -23.13000106811523 L -247.2628631591797 -23.13000106811523 L -247.5494689941406 -24.03146171569824 L -250.4474639892578 -33.14546203613281 L -251.0690002441406 -35.10000228881836 L -249.0180053710938 -35.10000228881836 L -243.3480072021484 -35.10000228881836 L -242.2509307861328 -35.10000228881836 L -241.9185485839844 -34.05453872680664 L -239.4702911376953 -26.35495185852051 C -238.6717834472656 -28.84537887573242 -238.1634826660156 -31.31535720825195 -237.9543914794922 -33.72946166992188 L -237.835693359375 -35.10000228881836 L -236.4600067138672 -35.10000228881836 L -231.5460052490234 -35.10000228881836 L -229.9212341308594 -35.10000228881836 L -230.0507659912109 -33.48038482666016 C -230.0949401855469 -32.92816543579102 -230.1389312744141 -32.43307495117188 -230.1830444335938 -31.99200057983398 L -229.85400390625 -31.99200057983398 L -229.85400390625 -34.02000045776367 L -229.85400390625 -35.52000045776367 L -228.35400390625 -35.52000045776367 L -222.9360046386719 -35.52000045776367 L -221.4360046386719 -35.52000045776367 L -221.4360046386719 -34.02000045776367 L -221.4360046386719 -31.99200057983398 L -213.906005859375 -31.99200057983398 L -212.406005859375 -31.99200057983398 L -212.406005859375 -30.49200057983398 L -212.406005859375 -25.87200164794922 L -212.406005859375 -24.37200164794922 L -213.906005859375 -24.37200164794922 L -221.4360046386719 -24.37200164794922 L -221.4360046386719 -23.25600051879883 L -212.1000061035156 -23.25600051879883 L -210.6000061035156 -23.25600051879883 L -210.6000061035156 -21.75600051879883 L -210.6000061035156 -17.13600158691406 L -210.6000061035156 -15.63600063323975 L -212.1000061035156 -15.63600063323975 L -213.5400085449219 -15.63600063323975 L -213.5400085449219 -15.54000091552734 L -213.5400085449219 -2.856001138687134 L -213.5400085449219 -2.760000944137573 L -211.6800079345703 -2.760000944137573 L -210.1800079345703 -2.760000944137573 L -210.1800079345703 -1.260001063346863 L -210.1800079345703 3.772716760635376 C -209.4260101318359 0.6363456845283508 -208.9140319824219 -2.298920869827271 -208.6580810546875 -4.953001022338867 C -208.3979339599609 -7.650462627410889 -208.2660064697266 -10.92984676361084 -208.2660064697266 -14.70000076293945 L -208.2660064697266 -15.17400074005127 L -209.4000091552734 -15.17400074005127 L -209.4000091552734 -16.67400169372559 L -209.4000091552734 -21.50400161743164 L -209.4000091552734 -23.00400161743164 L -207.9000091552734 -23.00400161743164 L -203.2259979248047 -23.00400161743164 L -203.2259979248047 -23.74200057983398 L -207.1860046386719 -23.74200057983398 L -208.6860046386719 -23.74200057983398 L -208.6860046386719 -25.24200057983398 L -208.6860046386719 -30.03000068664551 L -208.6860046386719 -31.53000068664551 L -207.1860046386719 -31.53000068664551 L -203.2259979248047 -31.53000068664551 L -203.2259979248047 -33.60000228881836 L -203.2259979248047 -35.10000228881836 L -201.7259979248047 -35.10000228881836 L -196.3500061035156 -35.10000228881836 L -194.8500061035156 -35.10000228881836 L -194.8500061035156 -33.60000228881836 L -194.8500061035156 -31.53000068664551 L -191.0579986572266 -31.53000068664551 L -190.5 -31.53000068664551 L -190.5 -32.97000122070312 L -190.5 -34.47000122070312 L -189 -34.47000122070312 L -170.6880035400391 -34.47000122070312 L -169.1573944091797 -34.47000122070312 L -169.1883087158203 -32.93969345092773 L -169.4823150634766 -18.40769386291504 L -169.5120849609375 -16.93800163269043 L -169.6080017089844 -16.93800163269043 L -169.6080017089844 -16.92600059509277 L -169.6080017089844 -3.402001142501831 L -169.6080017089844 -2.928000926971436 L -168.1800079345703 -2.928000926971436 L -168.1800079345703 -1.428001046180725 L -168.1800079345703 3.779999017715454 L -168.1800079345703 5.279998779296875 L -169.6800079345703 5.279998779296875 L -191.1000061035156 5.279998779296875 C -194.0720062255859 5.279998779296875 -196.554931640625 5.078845024108887 -198.4797668457031 4.68215274810791 C -199.7431335449219 4.421746730804443 -200.9481964111328 4.037280082702637 -202.0818328857422 3.533881187438965 C -202.1525726318359 3.907852649688721 -202.2165679931641 4.232407093048096 -202.2735443115234 4.505921840667725 L -202.5223083496094 5.69999885559082 Z M -193.1699981689453 -2.978443622589111 C -192.5450286865234 -2.944896459579468 -191.8531646728516 -2.928000926971436 -191.1000061035156 -2.928000926971436 L -189.7020111083984 -2.928000926971436 L -189.7020111083984 -3.402001142501831 L -189.7020111083984 -6.018001079559326 L -190.8899993896484 -6.018001079559326 L -193.1699981689453 -6.018001079559326 L -193.1699981689453 -2.978443622589111 Z M -240.29296875 -4.017766952514648 C -239.8026885986328 -3.803667306900024 -239.2902526855469 -3.619290351867676 -238.7580108642578 -3.465489625930786 L -238.7580108642578 -15.54000091552734 L -238.7580108642578 -15.63600063323975 L -238.9087677001953 -15.63600063323975 C -238.9714202880859 -14.24532318115234 -239.0571746826172 -12.9283390045166 -239.165771484375 -11.69177055358887 C -239.3887786865234 -9.151651382446289 -239.7673187255859 -6.575615406036377 -240.29296875 -4.017766952514648 Z M -230.4240112304688 -8.808000564575195 L -221.8740081787109 -8.808000564575195 L -221.8740081787109 -9.588001251220703 L -230.4240112304688 -9.588001251220703 L -230.4240112304688 -8.808000564575195 Z M -181.5360107421875 -9.522001266479492 L -177.7740020751953 -9.522001266479492 L -177.7740020751953 -10.80600070953369 L -181.5360107421875 -10.80600070953369 L -181.5360107421875 -9.522001266479492 Z M -193.1699981689453 -13.9320011138916 L -190.8899993896484 -13.9320011138916 L -189.7020111083984 -13.9320011138916 L -189.7020111083984 -15.17400074005127 L -190.3440093994141 -15.17400074005127 L -193.1699981689453 -15.17400074005127 L -193.1699981689453 -13.9320011138916 Z M -182.407958984375 -18.42600059509277 L -180.6719970703125 -18.42600059509277 L -180.6719970703125 -18.43800163269043 L -180.6719970703125 -21.93096733093262 C -181.1581115722656 -20.71467208862305 -181.7374267578125 -19.54467010498047 -182.407958984375 -18.42600059509277 Z M -194.8500061035156 -23.00400161743164 L -190.3440093994141 -23.00400161743164 L -188.8810272216797 -23.00400161743164 C -188.2729339599609 -24.22763633728027 -187.7917938232422 -25.46945571899414 -187.4401092529297 -26.72400093078613 L -189 -26.72400093078613 L -189.5579986572266 -26.72400093078613 L -189.5579986572266 -25.24200057983398 L -189.5579986572266 -23.74200057983398 L -191.0579986572266 -23.74200057983398 L -194.8500061035156 -23.74200057983398 L -194.8500061035156 -23.00400161743164 Z M -232.0473785400391 -23.25600051879883 L -229.85400390625 -23.25600051879883 L -229.85400390625 -24.37200164794922 L -231.685302734375 -24.37200164794922 C -231.8024139404297 -23.99346733093262 -231.9232330322266 -23.62109756469727 -232.0473785400391 -23.25600051879883 Z M -179.7295989990234 -24.76800155639648 L -179.1719970703125 -24.76800155639648 L -177.3583831787109 -24.76800155639648 L -177.3086547851562 -26.72400093078613 L -179.2841186523438 -26.72400093078613 C -179.4089660644531 -26.06161499023438 -179.5575714111328 -25.40929985046387 -179.7295989990234 -24.76800155639648 Z M -84.60000610351562 5.573998928070068 L -86.10000610351562 5.573998928070068 L -123.9000015258789 5.573998928070068 L -125.4000015258789 5.573998928070068 L -125.4000015258789 4.073998928070068 L -125.4000015258789 0.1259989589452744 L -125.4000015258789 -1.374001026153564 L -123.9000015258789 -1.374001026153564 L -123.5940017700195 -1.374001026153564 L -123.5940017700195 -4.284000873565674 L -123.5940017700195 -5.784000873565674 L -122.3340072631836 -5.784000873565674 L -122.3340072631836 -16.39200019836426 L -123.0180053710938 -16.39200019836426 L -124.5180053710938 -16.39200019836426 L -124.5180053710938 -17.89200019836426 L -124.5180053710938 -21.33600044250488 L -124.5180053710938 -22.83600044250488 L -123.0180053710938 -22.83600044250488 L -121.4520034790039 -22.83600044250488 L -121.4520034790039 -33.60000228881836 L -121.4520034790039 -35.10000228881836 L -119.9520034790039 -35.10000228881836 L -90.04800415039062 -35.10000228881836 L -88.54800415039062 -35.10000228881836 L -88.54800415039062 -33.60000228881836 L -88.54800415039062 -22.83600044250488 L -86.98200225830078 -22.83600044250488 L -85.48200225830078 -22.83600044250488 L -85.48200225830078 -21.33600044250488 L -85.48200225830078 -17.89200019836426 L -85.48200225830078 -16.39200019836426 L -86.98200225830078 -16.39200019836426 L -87.66600036621094 -16.39200019836426 L -87.66600036621094 -5.784000873565674 L -86.406005859375 -5.784000873565674 L -86.406005859375 -4.284000873565674 L -86.406005859375 -1.374001026153564 L -86.10000610351562 -1.374001026153564 L -84.60000610351562 -1.374001026153564 L -84.60000610351562 0.1259989589452744 L -84.60000610351562 4.073998928070068 L -84.60000610351562 5.573998928070068 Z M -259.614013671875 5.531999111175537 L -261.114013671875 5.531999111175537 L -272.3280029296875 5.531999111175537 L -273.8280029296875 5.531999111175537 L -273.8280029296875 4.031999111175537 L -273.8280029296875 -1.344001054763794 L -273.8280029296875 -2.844001054763794 L -272.3280029296875 -2.844001054763794 L -268.0740051269531 -2.844001054763794 L -268.0740051269531 -25.92600059509277 L -275.2799987792969 -25.92600059509277 L -275.2799987792969 -22.84800148010254 L -275.2799987792969 -21.34800148010254 L -276.7799987792969 -21.34800148010254 L -280.0260009765625 -21.34800148010254 L -280.0260009765625 -17.86702156066895 L -276.6816101074219 -18.60115432739258 L -274.8600158691406 -19.00100135803223 L -274.8600158691406 -17.13600158691406 L -274.8600158691406 -11.63400077819824 L -274.8600158691406 -10.42753982543945 L -276.0383911132812 -10.16884708404541 L -280.0260009765625 -9.293517112731934 L -280.0260009765625 4.031999111175537 L -280.0260009765625 5.531999111175537 L -281.5260009765625 5.531999111175537 L -291.35400390625 5.531999111175537 L -292.85400390625 5.531999111175537 L -292.85400390625 4.031999111175537 L -292.85400390625 -0.7140010595321655 L -292.85400390625 -2.214000940322876 L -291.35400390625 -2.214000940322876 L -288.4859924316406 -2.214000940322876 L -288.4859924316406 -7.455625057220459 L -292.1637878417969 -6.641462802886963 L -293.9880065917969 -6.237616539001465 L -293.9880065917969 -8.106000900268555 L -293.9880065917969 -13.60800075531006 L -293.9880065917969 -14.81223201751709 L -292.8122253417969 -15.07253932952881 L -288.4859924316406 -16.03025436401367 L -288.4859924316406 -21.34800148010254 L -292.0679931640625 -21.34800148010254 L -293.5679931640625 -21.34800148010254 L -293.5679931640625 -22.84800148010254 L -293.5679931640625 -27.80400085449219 L -293.5679931640625 -29.30400085449219 L -292.0679931640625 -29.30400085449219 L -288.4859924316406 -29.30400085449219 L -288.4859924316406 -33.64200210571289 L -288.4859924316406 -35.14200210571289 L -286.9859924316406 -35.14200210571289 L -281.5260009765625 -35.14200210571289 L -280.0260009765625 -35.14200210571289 L -280.0260009765625 -33.64200210571289 L -280.0260009765625 -29.30400085449219 L -277.3139953613281 -29.30400085449219 L -277.3139953613281 -32.67600250244141 L -277.3139953613281 -34.17600250244141 L -275.8139953613281 -34.17600250244141 L -253.260009765625 -34.17600250244141 L -251.760009765625 -34.17600250244141 L -251.760009765625 -32.67600250244141 L -251.760009765625 -27.42600059509277 L -251.760009765625 -25.92600059509277 L -253.260009765625 -25.92600059509277 L -259.614013671875 -25.92600059509277 L -259.614013671875 4.031999111175537 L -259.614013671875 5.531999111175537 Z M 83.69399261474609 5.237998962402344 L 82.19399261474609 5.237998962402344 L 57.74999618530273 5.237998962402344 L 56.24999618530273 5.237998962402344 L 56.24999618530273 3.737998962402344 L 56.24999618530273 1.770716905593872 L 44.13661193847656 3.78961443901062 L 42.38999557495117 4.080691337585449 L 42.38999557495117 2.309998989105225 L 42.38999557495117 -3.066000938415527 L 42.38999557495117 -4.340693473815918 L 43.64799499511719 -4.546385765075684 L 46.75799560546875 -5.054750919342041 L 46.75799560546875 -12.36000061035156 L 44.68799591064453 -12.36000061035156 L 43.18799591064453 -12.36000061035156 L 43.18799591064453 -13.86000061035156 L 43.18799591064453 -19.15200042724609 L 43.18799591064453 -20.65200042724609 L 44.68799591064453 -20.65200042724609 L 46.75799560546875 -20.65200042724609 L 46.75799560546875 -25.75800132751465 L 44.09999465942383 -25.75800132751465 L 42.59999465942383 -25.75800132751465 L 42.59999465942383 -27.25800132751465 L 42.59999465942383 -32.63400268554688 L 42.59999465942383 -34.13400268554688 L 44.09999465942383 -34.13400268554688 L 57.16199493408203 -34.13400268554688 L 58.05599594116211 -34.13400268554688 L 58.05599594116211 -34.42800140380859 L 59.55599594116211 -34.42800140380859 L 80.34599304199219 -34.42800140380859 L 81.84599304199219 -34.42800140380859 L 81.84599304199219 -32.92800140380859 L 81.84599304199219 -12.01200103759766 L 81.84599304199219 -10.69800090789795 L 82.51799774169922 -10.69800090789795 L 82.51799774169922 -9.198000907897949 L 82.51799774169922 -4.284000873565674 L 82.51799774169922 -2.784001111984253 L 81.01799774169922 -2.784001111984253 L 74.24399566650391 -2.784001111984253 L 74.24399566650391 -2.760000944137573 L 82.19399261474609 -2.760000944137573 L 83.69399261474609 -2.760000944137573 L 83.69399261474609 -1.260001063346863 L 83.69399261474609 3.737998962402344 L 83.69399261474609 5.237998962402344 Z M 59.24999618530273 -2.760000944137573 L 65.69999694824219 -2.760000944137573 L 65.69999694824219 -2.784001111984253 L 59.24999618530273 -2.784001111984253 L 59.24999618530273 -2.760000944137573 Z M 55.13399505615234 -12.36000061035156 L 55.13399505615234 -6.468743801116943 L 57.38399505615234 -6.836090564727783 L 57.38399505615234 -9.198000907897949 L 57.38399505615234 -10.69800090789795 L 58.05599594116211 -10.69800090789795 L 58.05599594116211 -12.01200103759766 L 58.05599594116211 -12.36000061035156 L 56.82599639892578 -12.36000061035156 L 55.13399505615234 -12.36000061035156 Z M 55.13399505615234 -20.65200042724609 L 56.82599639892578 -20.65200042724609 L 58.05599594116211 -20.65200042724609 L 58.05599594116211 -25.75800132751465 L 57.16199493408203 -25.75800132751465 L 55.13399505615234 -25.75800132751465 L 55.13399505615234 -20.65200042724609 Z M 290.1659851074219 5.111999034881592 L 288.6659851074219 5.111999034881592 L 257.333984375 5.111999034881592 L 255.8339996337891 5.111999034881592 L 255.8339996337891 3.611999034881592 L 255.8339996337891 -14.23800086975098 L 255.8339996337891 -15.73800086975098 L 257.333984375 -15.73800086975098 L 288.6659851074219 -15.73800086975098 L 290.1659851074219 -15.73800086975098 L 290.1659851074219 -14.23800086975098 L 290.1659851074219 3.611999034881592 L 290.1659851074219 5.111999034881592 Z M 264.3359985351562 -3.138000965118408 L 281.6640014648438 -3.138000965118408 L 281.6640014648438 -7.446001052856445 L 264.3359985351562 -7.446001052856445 L 264.3359985351562 -3.138000965118408 Z M 293.3403930664062 -16.14000129699707 L 290.8919982910156 -16.14000129699707 L 255.6539916992188 -16.14000129699707 L 254.1539916992188 -16.14000129699707 L 254.1539916992188 -17.64000129699707 L 254.1539916992188 -23.01600074768066 L 254.1539916992188 -24.51600074768066 L 255.6539916992188 -24.51600074768066 L 258.5628967285156 -24.51600074768066 L 265.4236755371094 -34.45230865478516 L 265.8709106445312 -35.10000228881836 L 266.6579895019531 -35.10000228881836 L 273.7980041503906 -35.10000228881836 L 276.6565246582031 -35.10000228881836 L 275.0323181152344 -32.7476921081543 L 269.3485107421875 -24.51600074768066 L 278.9891967773438 -24.51600074768066 L 277.3766784667969 -27.66661643981934 L 276.2592163085938 -29.85000038146973 L 278.7120056152344 -29.85000038146973 L 285.4320068359375 -29.85000038146973 L 286.3509826660156 -29.85000038146973 L 286.7683715820312 -29.03130912780762 L 292.2283935546875 -18.32130813598633 L 293.3403930664062 -16.14000129699707 Z" stroke="none"/>
      <path d="M 148.6799926757812 4.787999153137207 L 148.6799926757812 3.779999017715454 L 154.93798828125 3.779999017715454 C 156.5619964599609 1.17599892616272 157.7519989013672 -0.8960010409355164 158.5079956054688 -2.436001062393188 L 161.1119995117188 3.779999017715454 L 166.5299987792969 3.779999017715454 L 161.5739898681641 -7.854001045227051 C 162.4980010986328 -10.54200077056885 163.2539978027344 -13.48200130462646 163.8419952392578 -16.67400169372559 C 164.2619934082031 -19.22200012207031 164.5699920654297 -21.8120002746582 164.7659912109375 -24.44400024414062 L 166.3199920654297 -24.44400024414062 L 166.3199920654297 -29.90400123596191 L 156.3239898681641 -29.90400123596191 C 156.5479888916016 -31.64000129699707 156.7019958496094 -33.0260009765625 156.7859954833984 -34.0620002746582 L 151.6199951171875 -34.0620002746582 C 151.0319976806641 -27.93000030517578 149.8699951171875 -22.14800071716309 148.1340026855469 -16.71600151062012 C 147.3779907226562 -18.28400039672852 146.7760009765625 -19.99200057983398 146.3280029296875 -21.84000015258789 L 148.9739990234375 -21.84000015258789 L 148.9739990234375 -26.62800025939941 L 140.8259887695312 -26.62800025939941 L 140.8259887695312 -33.68400192260742 L 135.9539947509766 -33.68400192260742 L 135.9539947509766 -26.62800025939941 L 127.8059921264648 -26.62800025939941 L 127.8059921264648 -21.84000015258789 L 130.4519958496094 -21.84000015258789 C 129.8639984130859 -19.40400123596191 128.9960021972656 -17.15000152587891 127.8479995727539 -15.07800102233887 L 132.593994140625 -15.07800102233887 C 133.5739898681641 -17.06600189208984 134.3159942626953 -19.32000160217285 134.8199920654297 -21.84000015258789 L 135.9539947509766 -21.84000015258789 L 135.9539947509766 -15.41400146484375 L 140.8259887695312 -15.41400146484375 L 140.8259887695312 -21.84000015258789 L 142.0019989013672 -21.84000015258789 C 142.4499969482422 -19.46000099182129 143.1920013427734 -17.20600128173828 144.2279968261719 -15.07800102233887 L 148.9319915771484 -15.07800102233887 L 148.4700012207031 -15.96000099182129 L 151.6199951171875 -15.96000099182129 L 154.7699890136719 -6.720001220703125 C 153.3139953613281 -3.724000930786133 151.2839965820312 -0.4060010313987732 148.6799926757812 3.233999013900757 L 148.6799926757812 -0.08400103449821472 L 143.5559997558594 -2.730000972747803 C 144.6759948730469 -4.130001068115234 145.6699981689453 -5.810000896453857 146.5379943847656 -7.77000093460083 L 149.3939971923828 -7.77000093460083 L 149.3939971923828 -12.30600070953369 L 138.4319915771484 -12.30600070953369 L 139.5240020751953 -14.78400135040283 L 134.2319946289062 -14.78400135040283 L 133.1399993896484 -12.30600070953369 L 127.8059921264648 -12.30600070953369 L 127.8059921264648 -7.77000093460083 L 131.1660003662109 -7.77000093460083 L 129.8219909667969 -4.704000949859619 L 135.2819976806641 -1.974001049995422 C 133.2659912109375 -1.05000102519989 130.7740020751953 -0.5460010170936584 127.8059921264648 -0.4620010256767273 L 127.8059921264648 4.19999885559082 C 132.7619934082031 4.171998977661133 136.8919982910156 2.939998865127563 140.1959991455078 0.5039989352226257 L 148.6799926757812 4.787999153137207 M 136.4579925537109 -7.77000093460083 L 141.4140014648438 -7.77000093460083 C 140.7699890136719 -6.622001171112061 140.0839996337891 -5.656001091003418 139.3560028076172 -4.872001171112061 L 135.9539947509766 -6.636001110076904 L 136.4579925537109 -7.77000093460083 M 155.4839935302734 -24.44400024414062 L 159.8939971923828 -24.44400024414062 C 159.4739990234375 -19.79600143432617 158.7319946289062 -15.778000831604 157.6679992675781 -12.39000129699707 L 154.93798828125 -21.67200088500977 L 155.4839935302734 -24.44400024414062 M 123.9839935302734 4.619998931884766 L 123.9839935302734 -1.386000990867615 C 120.9599990844727 -2.618000984191895 118.4469985961914 -3.962001085281372 116.4449920654297 -5.418001174926758 C 114.4429931640625 -6.874001026153564 112.7489929199219 -8.680001258850098 111.3629989624023 -10.8360013961792 C 109.9769973754883 -12.99200057983398 108.7939987182617 -15.70800113677979 107.8139953613281 -18.98400115966797 L 123.8999938964844 -18.98400115966797 L 123.8999938964844 -24.44400024414062 L 107.7719955444336 -24.44400024414062 L 107.7719955444336 -34.02000045776367 L 102.2279968261719 -34.02000045776367 L 102.2699966430664 -24.44400024414062 L 86.09999847412109 -24.44400024414062 L 86.09999847412109 -18.98400115966797 L 102.2279968261719 -18.98400115966797 C 101.2479934692383 -15.70800113677979 100.0649948120117 -12.99200057983398 98.67899322509766 -10.8360013961792 C 97.29299926757812 -8.680001258850098 95.5989990234375 -6.874001026153564 93.59699249267578 -5.418001174926758 C 91.59499359130859 -3.962001085281372 89.08199310302734 -2.618000984191895 86.05799865722656 -1.386000990867615 L 86.05799865722656 4.619998931884766 C 91.01399230957031 3.051998853683472 94.99699401855469 1.028998970985413 98.00699615478516 -1.44900107383728 C 101.0169982910156 -3.927000999450684 103.3619995117188 -7.01400089263916 105.0419921875 -10.71000099182129 C 106.6939926147461 -7.01400089263916 109.0249938964844 -3.927000999450684 112.0349960327148 -1.44900107383728 C 115.0449981689453 1.028998970985413 119.0279922485352 3.051998853683472 123.9839935302734 4.619998931884766 M -43.68000411987305 4.619998931884766 L -43.68000411987305 -1.890001058578491 L -48.21600341796875 -5.50200080871582 C -47.32000350952148 -8.134000778198242 -46.57100296020508 -10.87800121307373 -45.9690055847168 -13.73400115966797 C -45.36700439453125 -16.59000015258789 -44.85600280761719 -19.7400016784668 -44.43600463867188 -23.18400192260742 L -49.77000427246094 -23.18400192260742 L -47.54400253295898 -33.18000030517578 L -67.45200347900391 -33.18000030517578 L -67.45200347900391 -28.09800148010254 L -64.17600250244141 -28.09800148010254 L -64.17600250244141 -19.40400123596191 C -64.17600250244141 -15.65200138092041 -64.44900512695312 -12.13100147247314 -64.99500274658203 -8.841001510620117 C -65.54100036621094 -5.551001071929932 -66.47200775146484 -2.310001134872437 -67.78800201416016 0.8819989562034607 L -67.78800201416016 -3.2760009765625 L -81.90000152587891 -1.512001037597656 L -81.90000152587891 3.863998889923096 L -68.33400726318359 2.183999061584473 C -68.53000640869141 2.631999015808105 -68.85200500488281 3.303998947143555 -69.30000305175781 4.19999885559082 L -63.21000289916992 4.19999885559082 C -61.47400283813477 -0.05600103735923767 -60.27000427246094 -4.382000923156738 -59.59800338745117 -8.778000831604004 L -54.60000228881836 -4.78800106048584 C -55.80400466918945 -1.876001000404358 -57.30200576782227 1.119998931884766 -59.0940055847168 4.19999885559082 L -52.92000579833984 4.19999885559082 C -51.88400268554688 2.099998950958252 -51.11400604248047 0.4059989750385284 -50.61000442504883 -0.8820010423660278 L -43.68000411987305 4.619998931884766 M -58.88400268554688 -28.09800148010254 L -53.8440055847168 -28.09800148010254 L -56.02800369262695 -18.14400100708008 L -50.10600280761719 -18.14400100708008 C -50.6660041809082 -15.06400108337402 -51.36600494384766 -12.25000095367432 -52.20600509643555 -9.702000617980957 L -59.01000595092773 -15.1200008392334 C -58.92600250244141 -16.52000045776367 -58.88400268554688 -17.94800186157227 -58.88400268554688 -19.40400123596191 L -58.88400268554688 -28.09800148010254 M -28.05600357055664 4.451999187469482 L -15.1620044708252 2.183999061584473 L -15.1620044708252 -3.360001087188721 L -20.16000366210938 -2.478001117706299 L -20.16000366210938 -18.48000144958496 L -15.83400440216064 -18.48000144958496 L -15.83400440216064 -23.94000053405762 L -20.16000366210938 -23.94000053405762 L -20.16000366210938 -33.60000228881836 L -25.5360050201416 -33.60000228881836 L -25.5360050201416 -1.554001092910767 L -28.05600357055664 -1.092001080513 L -28.05600357055664 4.451999187469482 M 187.2779998779297 4.24199914932251 C 188.1739959716797 1.441998958587646 188.8109893798828 -1.540001034736633 189.1889953613281 -4.704000949859619 C 189.5670013427734 -7.868000984191895 189.7839965820312 -10.66800117492676 189.8399963378906 -13.10400104522705 L 196.2239990234375 -13.10400104522705 L 196.2239990234375 -9.660000801086426 L 190.0919952392578 -9.660000801086426 L 190.0919952392578 4.19999885559082 L 207.6479949951172 4.19999885559082 L 207.6479949951172 -9.660000801086426 L 201.5159912109375 -9.660000801086426 L 201.5159912109375 -13.10400104522705 L 208.739990234375 -13.10400104522705 L 208.739990234375 -18.06000137329102 L 201.5159912109375 -18.06000137329102 L 201.5159912109375 -21.21000099182129 L 207.7740020751953 -21.21000099182129 L 207.7740020751953 -33.34799957275391 L 184.5059967041016 -33.34799957275391 L 184.5059967041016 -14.32200145721436 C 184.5059967041016 -11.32600116729736 184.4219970703125 -8.918001174926758 184.2539978027344 -7.098001003265381 C 184.0859985351562 -5.278000831604004 183.7849884033203 -3.577001094818115 183.3509979248047 -1.995001077651978 C 182.9169921875 -0.4130010306835175 182.2379913330078 1.665998935699463 181.3139953613281 4.24199914932251 L 187.2779998779297 4.24199914932251 M 195.2579956054688 -5.040000915527344 L 202.4819946289062 -5.040000915527344 L 202.4819946289062 -0.4200010299682617 L 195.2579956054688 -0.4200010299682617 L 195.2579956054688 -5.040000915527344 M 189.8819885253906 -21.21000099182129 L 196.2239990234375 -21.21000099182129 L 196.2239990234375 -18.06000137329102 L 189.8819885253906 -18.06000137329102 L 189.8819885253906 -21.21000099182129 M 189.8819885253906 -28.8120002746582 L 202.3139953613281 -28.8120002746582 L 202.3139953613281 -25.74600028991699 L 189.8819885253906 -25.74600028991699 L 189.8819885253906 -28.8120002746582 M 233.7299957275391 4.19999885559082 L 233.7299957275391 -9.030000686645508 L 250.3199920654297 -9.030000686645508 L 250.3199920654297 -14.32200145721436 L 233.7299957275391 -14.32200145721436 L 233.7299957275391 -27.59400177001953 L 249.43798828125 -27.59400177001953 L 249.43798828125 -32.88600158691406 L 212.5619964599609 -32.88600158691406 L 212.5619964599609 -27.59400177001953 L 228.2699890136719 -27.59400177001953 L 228.2699890136719 -14.32200145721436 L 211.6799926757812 -14.32200145721436 L 211.6799926757812 -9.030000686645508 L 228.2699890136719 -9.030000686645508 L 228.2699890136719 4.19999885559082 L 233.7299957275391 4.19999885559082 M 179.5500030517578 4.19999885559082 L 179.5500030517578 -10.41600131988525 L 183.3300018310547 -11.38200092315674 L 183.3300018310547 -17.22000122070312 L 179.5500030517578 -16.25400161743164 L 179.5500030517578 -22.68000030517578 L 182.9099884033203 -22.68000030517578 L 182.9099884033203 -27.97200012207031 L 179.5500030517578 -27.97200012207031 L 179.5500030517578 -33.81000137329102 L 174.0899963378906 -33.81000137329102 L 174.0899963378906 -27.97200012207031 L 170.3519897460938 -27.97200012207031 L 170.3519897460938 -22.68000030517578 L 174.0899963378906 -22.68000030517578 L 174.0899963378906 -14.91000080108643 L 169.9319915771484 -13.86000061035156 L 169.9319915771484 -8.022001266479492 L 174.0899963378906 -9.072001457214355 L 174.0899963378906 -0.8820010423660278 L 171.0659942626953 -0.8820010423660278 L 171.0659942626953 4.19999885559082 L 179.5500030517578 4.19999885559082 M 8.945996284484863 4.19999885559082 C 10.87799549102783 1.987998962402344 12.44599628448486 -0.08400103449821472 13.64999580383301 -2.016000986099243 L 19.1099967956543 3.779999017715454 L 39.89999771118164 3.779999017715454 L 39.89999771118164 -1.596001029014587 L 21.75599670410156 -1.596001029014587 L 16.4639949798584 -7.01400089263916 C 17.91999626159668 -10.15000057220459 19.01199531555176 -13.51700115203857 19.7399959564209 -17.1150016784668 C 20.46799659729004 -20.7130012512207 20.9579963684082 -24.83600044250488 21.20999526977539 -29.48400115966797 L 11.71799564361572 -29.48400115966797 C 11.96999549865723 -30.80000114440918 12.1799955368042 -32.17200088500977 12.34799575805664 -33.60000228881836 L 6.719995975494385 -33.60000228881836 C 5.935996055603027 -27.30000114440918 4.11599588394165 -21.1820011138916 1.259995818138123 -15.24600124359131 L 7.307995796203613 -15.24600124359131 C 8.595995903015137 -18.07400131225586 9.659996032714844 -21.00000190734863 10.49999618530273 -24.02400016784668 L 15.37199592590332 -24.02400016784668 C 14.81199550628662 -19.20800018310547 13.77599620819092 -14.98000144958496 12.26399612426758 -11.34000110626221 L 9.953995704650879 -13.69200134277344 L 2.687995910644531 -13.69200134277344 L 9.701995849609375 -6.25800085067749 C 7.657995700836182 -2.870001077651978 4.885995864868164 0.6159989833831787 1.385995864868164 4.19999885559082 L 8.945996284484863 4.19999885559082 M -30.66000366210938 4.19999885559082 L -30.66000366210938 -10.50000095367432 L -27.30000495910645 -11.38200092315674 L -27.30000495910645 -17.22000122070312 L -30.66000366210938 -16.3380012512207 L -30.66000366210938 -22.68000030517578 L -27.72000503540039 -22.68000030517578 L -27.72000503540039 -27.97200012207031 L -30.66000366210938 -27.97200012207031 L -30.66000366210938 -33.81000137329102 L -36.12000274658203 -33.81000137329102 L -36.12000274658203 -27.97200012207031 L -39.64800262451172 -27.97200012207031 L -39.64800262451172 -22.68000030517578 L -36.12000274658203 -22.68000030517578 L -36.12000274658203 -14.91000080108643 L -40.0680046081543 -13.86000061035156 L -40.0680046081543 -8.022001266479492 L -36.12000274658203 -9.072001457214355 L -36.12000274658203 -0.8820010423660278 L -38.93400573730469 -0.8820010423660278 L -38.93400573730469 4.19999885559082 L -30.66000366210938 4.19999885559082 M -153.2160034179688 4.19999885559082 L -153.2160034179688 -2.478001117706299 L -149.7300109863281 -3.024001121520996 L -149.7300109863281 -8.442001342773438 L -153.2160034179688 -7.896000862121582 L -153.2160034179688 -11.46600151062012 L -149.8140106201172 -11.46600151062012 L -149.8140106201172 -16.75800132751465 L -153.2160034179688 -16.75800132751465 L -153.2160034179688 -23.10000038146973 L -158.0460052490234 -23.10000038146973 L -158.0460052490234 -16.75800132751465 L -159.7259979248047 -16.75800132751465 L -157.8359985351562 -25.57800102233887 L -149.7300109863281 -25.57800102233887 L -149.7300109863281 -30.78600120544434 L -156.7020111083984 -30.78600120544434 L -156.1139984130859 -33.60000228881836 L -161.4900054931641 -33.60000228881836 L -162.1200103759766 -30.78600120544434 L -165.9000091552734 -30.78600120544434 L -165.9000091552734 -25.57800102233887 L -163.2539978027344 -25.57800102233887 L -166.3619995117188 -11.46600151062012 L -158.5500030517578 -11.46600151062012 L -158.5500030517578 -7.05600118637085 L -166.3200073242188 -5.838001251220703 L -166.3200073242188 -0.4200010299682617 L -158.5500030517578 -1.638001084327698 L -158.5500030517578 4.19999885559082 L -153.2160034179688 4.19999885559082 M -203.7420043945312 4.19999885559082 C -203.6020050048828 3.527998924255371 -203.4199981689453 2.547998905181885 -203.1959991455078 1.259998917579651 C -201.6840057373047 2.183999061584473 -200.0110015869141 2.834998846054077 -198.177001953125 3.212998867034912 C -196.3430023193359 3.590998888015747 -193.9840087890625 3.779999017715454 -191.1000061035156 3.779999017715454 L -169.6800079345703 3.779999017715454 L -169.6800079345703 -1.428001046180725 L -191.1000061035156 -1.428001046180725 C -192.5 -1.428001046180725 -193.6900024414062 -1.484001040458679 -194.6699981689453 -1.596001029014587 L -194.6699981689453 -7.518001079559326 L -190.8899993896484 -7.518001079559326 L -190.8899993896484 -12.4320011138916 L -194.6699981689453 -12.4320011138916 L -194.6699981689453 -16.67400169372559 L -190.3440093994141 -16.67400169372559 L -190.3440093994141 -21.50400161743164 L -196.3500061035156 -21.50400161743164 L -196.3500061035156 -25.24200057983398 L -191.0579986572266 -25.24200057983398 L -191.0579986572266 -30.03000068664551 L -196.3500061035156 -30.03000068664551 L -196.3500061035156 -33.60000228881836 L -201.7259979248047 -33.60000228881836 L -201.7259979248047 -30.03000068664551 L -207.1860046386719 -30.03000068664551 L -207.1860046386719 -25.24200057983398 L -201.7259979248047 -25.24200057983398 L -201.7259979248047 -21.50400161743164 L -207.9000091552734 -21.50400161743164 L -207.9000091552734 -16.67400169372559 L -199.9620056152344 -16.67400169372559 L -199.9620056152344 -2.940001010894775 C -200.7180023193359 -3.2760009765625 -201.5440063476562 -3.766000986099243 -202.4400024414062 -4.410000801086426 C -202.1880035400391 -6.902000904083252 -202.0339965820312 -10.33200073242188 -201.9779968261719 -14.70000076293945 L -206.7660064697266 -14.70000076293945 C -206.7660064697266 -10.86400127410889 -206.8990020751953 -7.567000865936279 -207.1650085449219 -4.809000968933105 C -207.4309997558594 -2.051001071929932 -207.9560089111328 0.9519989490509033 -208.7400054931641 4.19999885559082 L -203.7420043945312 4.19999885559082 M -243.9779968261719 4.19999885559082 C -243.8659973144531 3.863998889923096 -243.6419982910156 3.079998970031738 -243.3059997558594 1.847998976707458 C -241.9340057373047 2.547998905181885 -240.3870086669922 3.04499888420105 -238.6650085449219 3.338999032974243 C -236.9430084228516 3.632998943328857 -234.8079986572266 3.779999017715454 -232.260009765625 3.779999017715454 L -211.6800079345703 3.779999017715454 L -211.6800079345703 -1.260001063346863 L -232.260009765625 -1.260001063346863 C -234.4440002441406 -1.260001063346863 -236.2990112304688 -1.40700101852417 -237.8249969482422 -1.701001048088074 C -239.3509979248047 -1.995001077651978 -240.7440032958984 -2.492001056671143 -242.0039978027344 -3.192001104354858 C -241.3600006103516 -6.076001167297363 -240.9120025634766 -8.953001022338867 -240.6600036621094 -11.82300090789795 C -240.4080047607422 -14.69300079345703 -240.2819976806641 -17.96200180053711 -240.2819976806641 -21.63000106811523 L -250.7400054931641 -21.63000106811523 L -250.7400054931641 -16.17000198364258 L -245.7839965820312 -16.17000198364258 C -245.9240112304688 -12.53000068664551 -246.302001953125 -9.142001152038574 -246.9179992675781 -6.006000995635986 C -247.5339965820312 -2.870001077651978 -248.5 0.5319989919662476 -249.8160095214844 4.19999885559082 L -243.9779968261719 4.19999885559082 M -86.10000610351562 4.073998928070068 L -86.10000610351562 0.1259989589452744 L -102.2700042724609 0.1259989589452744 L -102.2700042724609 -0.9240010380744934 L -87.906005859375 -0.9240010380744934 L -87.906005859375 -4.284000873565674 L -102.2700042724609 -4.284000873565674 L -102.2700042724609 -5.334001064300537 L -89.16600036621094 -5.334001064300537 L -89.16600036621094 -16.84200096130371 L -120.8340072631836 -16.84200096130371 L -120.8340072631836 -5.334001064300537 L -107.7300033569336 -5.334001064300537 L -107.7300033569336 -4.284000873565674 L -122.0940017700195 -4.284000873565674 L -122.0940017700195 -0.9240010380744934 L -107.7300033569336 -0.9240010380744934 L -107.7300033569336 0.1259989589452744 L -123.9000015258789 0.1259989589452744 L -123.9000015258789 4.073998928070068 L -86.10000610351562 4.073998928070068 M -102.2700042724609 -9.744001388549805 L -94.54200744628906 -9.744001388549805 L -94.54200744628906 -8.484001159667969 L -102.2700042724609 -8.484001159667969 L -102.2700042724609 -9.744001388549805 M -115.4580078125 -9.744001388549805 L -107.7300033569336 -9.744001388549805 L -107.7300033569336 -8.484001159667969 L -115.4580078125 -8.484001159667969 L -115.4580078125 -9.744001388549805 M -102.2700042724609 -13.69200134277344 L -94.54200744628906 -13.69200134277344 L -94.54200744628906 -12.4320011138916 L -102.2700042724609 -12.4320011138916 L -102.2700042724609 -13.69200134277344 M -115.4580078125 -13.69200134277344 L -107.7300033569336 -13.69200134277344 L -107.7300033569336 -12.4320011138916 L -115.4580078125 -12.4320011138916 L -115.4580078125 -13.69200134277344 M -261.114013671875 4.031999111175537 L -261.114013671875 -27.42600059509277 L -253.260009765625 -27.42600059509277 L -253.260009765625 -32.67600250244141 L -275.8139953613281 -32.67600250244141 L -275.8139953613281 -27.42600059509277 L -266.5740051269531 -27.42600059509277 L -266.5740051269531 -1.344001054763794 L -272.3280029296875 -1.344001054763794 L -272.3280029296875 4.031999111175537 L -261.114013671875 4.031999111175537 M -281.5260009765625 4.031999111175537 L -281.5260009765625 -10.50000095367432 L -276.3600158691406 -11.63400077819824 L -276.3600158691406 -17.13600158691406 L -281.5260009765625 -16.00200080871582 L -281.5260009765625 -22.84800148010254 L -276.7799987792969 -22.84800148010254 L -276.7799987792969 -27.80400085449219 L -281.5260009765625 -27.80400085449219 L -281.5260009765625 -33.64200210571289 L -286.9859924316406 -33.64200210571289 L -286.9859924316406 -27.80400085449219 L -292.0679931640625 -27.80400085449219 L -292.0679931640625 -22.84800148010254 L -286.9859924316406 -22.84800148010254 L -286.9859924316406 -14.82600116729736 L -292.4880065917969 -13.60800075531006 L -292.4880065917969 -8.106000900268555 L -286.9859924316406 -9.324001312255859 L -286.9859924316406 -0.7140010595321655 L -291.35400390625 -0.7140010595321655 L -291.35400390625 4.031999111175537 L -281.5260009765625 4.031999111175537 M -1.638004183769226 3.863998889923096 L -1.638004183769226 -1.596001029014587 L -8.736003875732422 -1.596001029014587 L -8.736003875732422 -18.18600082397461 C -6.496004104614258 -18.57800102233887 -4.298004150390625 -19.09600067138672 -2.142004251480103 -19.7400016784668 L -2.142004251480103 -25.24200057983398 C -4.074004173278809 -24.71000099182129 -6.272004127502441 -24.17800140380859 -8.736003875732422 -23.6460018157959 L -8.736003875732422 -33.60000228881836 L -14.11200428009033 -33.60000228881836 L -14.11200428009033 3.863998889923096 L -1.638004183769226 3.863998889923096 M 82.19399261474609 3.737998962402344 L 82.19399261474609 -1.260001063346863 L 72.74399566650391 -1.260001063346863 L 72.74399566650391 -4.284000873565674 L 81.01799774169922 -4.284000873565674 L 81.01799774169922 -9.198000907897949 L 72.74399566650391 -9.198000907897949 L 72.74399566650391 -12.01200103759766 L 80.34599304199219 -12.01200103759766 L 80.34599304199219 -32.92800140380859 L 59.55599594116211 -32.92800140380859 L 59.55599594116211 -12.01200103759766 L 67.19999694824219 -12.01200103759766 L 67.19999694824219 -9.198000907897949 L 58.88399505615234 -9.198000907897949 L 58.88399505615234 -4.284000873565674 L 67.19999694824219 -4.284000873565674 L 67.19999694824219 -1.260001063346863 L 57.74999618530273 -1.260001063346863 L 57.74999618530273 -5.376000881195068 L 53.63399505615234 -4.704000949859619 L 53.63399505615234 -13.86000061035156 L 56.82599639892578 -13.86000061035156 L 56.82599639892578 -19.15200042724609 L 53.63399505615234 -19.15200042724609 L 53.63399505615234 -27.25800132751465 L 57.16199493408203 -27.25800132751465 L 57.16199493408203 -32.63400268554688 L 44.09999465942383 -32.63400268554688 L 44.09999465942383 -27.25800132751465 L 48.25799560546875 -27.25800132751465 L 48.25799560546875 -19.15200042724609 L 44.68799591064453 -19.15200042724609 L 44.68799591064453 -13.86000061035156 L 48.25799560546875 -13.86000061035156 L 48.25799560546875 -3.780000925064087 L 43.88999557495117 -3.066000938415527 L 43.88999557495117 2.309998989105225 L 57.74999618530273 -1.037597712638672e-06 L 57.74999618530273 3.737998962402344 L 82.19399261474609 3.737998962402344 M 72.36599731445312 -20.16000175476074 L 75.13799285888672 -20.16000175476074 L 75.13799285888672 -16.9680004119873 L 72.36599731445312 -16.9680004119873 L 72.36599731445312 -20.16000175476074 M 64.76399230957031 -20.16000175476074 L 67.57799530029297 -20.16000175476074 L 67.57799530029297 -16.9680004119873 L 64.76399230957031 -16.9680004119873 L 64.76399230957031 -20.16000175476074 M 72.36599731445312 -28.01400184631348 L 75.13799285888672 -28.01400184631348 L 75.13799285888672 -24.82200050354004 L 72.36599731445312 -24.82200050354004 L 72.36599731445312 -28.01400184631348 M 64.76399230957031 -28.01400184631348 L 67.57799530029297 -28.01400184631348 L 67.57799530029297 -24.82200050354004 L 64.76399230957031 -24.82200050354004 L 64.76399230957031 -28.01400184631348 M -127.6800079345703 3.737998962402344 L -127.6800079345703 -1.428001046180725 L -135.7860107421875 -1.428001046180725 L -135.7860107421875 -9.156001091003418 L -128.9820098876953 -9.156001091003418 L -128.9820098876953 -14.32200145721436 L -148.2180023193359 -14.32200145721436 L -148.2180023193359 -9.156001091003418 L -141.1620025634766 -9.156001091003418 L -141.1620025634766 -1.428001046180725 L -149.2680053710938 -1.428001046180725 L -149.2680053710938 3.737998962402344 L -127.6800079345703 3.737998962402344 M 288.6659851074219 3.611999034881592 L 288.6659851074219 -14.23800086975098 L 257.333984375 -14.23800086975098 L 257.333984375 3.611999034881592 L 288.6659851074219 3.611999034881592 M 262.8359985351562 -8.946001052856445 L 283.1640014648438 -8.946001052856445 L 283.1640014648438 -1.638001084327698 L 262.8359985351562 -1.638001084327698 L 262.8359985351562 -8.946001052856445 M -215.0400085449219 -2.856001138687134 L -215.0400085449219 -15.54000091552734 L -237.2580108642578 -15.54000091552734 L -237.2580108642578 -2.856001138687134 L -215.0400085449219 -2.856001138687134 M -231.9240112304688 -11.0880012512207 L -220.3740081787109 -11.0880012512207 L -220.3740081787109 -7.308001041412354 L -231.9240112304688 -7.308001041412354 L -231.9240112304688 -11.0880012512207 M 30.15599632263184 -2.940001010894775 L 30.15599632263184 -33.60000228881836 L 24.69599533081055 -33.60000228881836 L 24.69599533081055 -2.940001010894775 L 30.15599632263184 -2.940001010894775 M -171.1080017089844 -3.402001142501831 L -171.1080017089844 -16.92600059509277 L -188.2020111083984 -16.92600059509277 L -188.2020111083984 -3.402001142501831 L -171.1080017089844 -3.402001142501831 M -183.0360107421875 -12.30600070953369 L -176.2740020751953 -12.30600070953369 L -176.2740020751953 -8.022001266479492 L -183.0360107421875 -8.022001266479492 L -183.0360107421875 -12.30600070953369 M -67.53600311279297 -5.796000957489014 L -67.53600311279297 -11.00400066375732 L -72.156005859375 -11.00400066375732 L -66.10800170898438 -25.53600120544434 L -71.56800079345703 -25.53600120544434 L -73.58400726318359 -20.62200164794922 L -75.51600646972656 -21.5880012512207 L -70.39200592041016 -33.60000228881836 L -76.02000427246094 -33.60000228881836 L -82.32000732421875 -18.56400108337402 L -76.86000061035156 -15.79200077056885 L -81.01800537109375 -5.796000957489014 L -67.53600311279297 -5.796000957489014 M 39.73199462890625 -8.148000717163086 C 39.47999572753906 -15.42800140380859 38.47199630737305 -22.38600158691406 36.7079963684082 -29.02200126647949 L 31.20599555969238 -29.02200126647949 C 33.19399642944336 -22.16200065612793 34.31399536132812 -15.20400142669678 34.56599426269531 -8.148000717163086 L 39.73199462890625 -8.148000717163086 M -128.0579986572266 -15.87600135803223 L -128.0579986572266 -21.16800117492676 L -133.85400390625 -23.5620002746582 C -131.6419982910156 -26.13800048828125 -130.0599975585938 -29.31600189208984 -129.1080017089844 -33.09600067138672 L -148.1340026855469 -33.09600067138672 L -148.1340026855469 -27.88800048828125 L -137.2980041503906 -27.88800048828125 C -140.0140075683594 -24.38800048828125 -143.906005859375 -22.2180004119873 -148.9739990234375 -21.37800025939941 L -148.9739990234375 -16.00200080871582 C -144.7180023193359 -16.47800064086914 -141.0640106201172 -17.75200080871582 -138.0120086669922 -19.82400131225586 L -128.0579986572266 -15.87600135803223 M 244.3139953613281 -16.21200180053711 L 246.9599914550781 -25.6200008392334 L 241.3739929199219 -25.6200008392334 L 238.7279968261719 -16.21200180053711 L 244.3139953613281 -16.21200180053711 M 223.2720031738281 -16.21200180053711 L 220.6259918212891 -25.6200008392334 L 215.0399932861328 -25.6200008392334 L 217.6859893798828 -16.21200180053711 L 223.2720031738281 -16.21200180053711 M -212.1000061035156 -17.13600158691406 L -212.1000061035156 -21.75600051879883 L -222.9360046386719 -21.75600051879883 L -222.9360046386719 -25.87200164794922 L -213.906005859375 -25.87200164794922 L -213.906005859375 -30.49200057983398 L -222.9360046386719 -30.49200057983398 L -222.9360046386719 -34.02000045776367 L -228.35400390625 -34.02000045776367 L -228.35400390625 -30.49200057983398 L -231.8820037841797 -30.49200057983398 C -231.7700042724609 -31.16400146484375 -231.6580047607422 -32.20000076293945 -231.5460052490234 -33.60000228881836 L -236.4600067138672 -33.60000228881836 C -236.7680053710938 -30.04400062561035 -237.6780090332031 -26.4320011138916 -239.1900024414062 -22.76400184631348 L -233.8140106201172 -22.76400184631348 C -233.4499969482422 -23.7440013885498 -233.1139984130859 -24.78000068664551 -232.8059997558594 -25.87200164794922 L -228.35400390625 -25.87200164794922 L -228.35400390625 -21.75600051879883 L -239.2320098876953 -21.75600051879883 L -239.2320098876953 -17.13600158691406 L -212.1000061035156 -17.13600158691406 M 290.8919982910156 -17.64000129699707 L 285.4320068359375 -28.35000038146973 L 278.7120056152344 -28.35000038146973 L 281.4419860839844 -23.01600074768066 L 266.489990234375 -23.01600074768066 L 273.7980041503906 -33.60000228881836 L 266.6579895019531 -33.60000228881836 L 259.3500061035156 -23.01600074768066 L 255.6539916992188 -23.01600074768066 L 255.6539916992188 -17.64000129699707 L 290.8919982910156 -17.64000129699707 M -86.98200225830078 -17.89200019836426 L -86.98200225830078 -21.33600044250488 L -123.0180053710938 -21.33600044250488 L -123.0180053710938 -17.89200019836426 L -86.98200225830078 -17.89200019836426 M -170.9820098876953 -18.43800163269043 L -170.6880035400391 -32.97000122070312 L -189 -32.97000122070312 L -189 -28.22400093078613 L -185.5559997558594 -28.22400093078613 C -186.1719970703125 -24.83600044250488 -187.6280059814453 -21.57400131225586 -189.9240112304688 -18.43800163269043 L -184.1699981689453 -18.43800163269043 C -182.2660064697266 -21.35000038146973 -181.06201171875 -24.61200141906738 -180.5579986572266 -28.22400093078613 L -175.7700042724609 -28.22400093078613 L -175.8960113525391 -23.26800155639648 L -179.1719970703125 -23.26800155639648 L -179.1719970703125 -18.43800163269043 L -170.9820098876953 -18.43800163269043 M -90.04800415039062 -22.38600158691406 L -90.04800415039062 -33.60000228881836 L -119.9520034790039 -33.60000228881836 L -119.9520034790039 -22.38600158691406 L -90.04800415039062 -22.38600158691406 M -114.5340042114258 -26.54400062561035 L -95.46600341796875 -26.54400062561035 L -95.46600341796875 -25.28400039672852 L -114.5340042114258 -25.28400039672852 L -114.5340042114258 -26.54400062561035 M -114.5340042114258 -30.40800094604492 L -95.46600341796875 -30.40800094604492 L -95.46600341796875 -29.14800071716309 L -114.5340042114258 -29.14800071716309 L -114.5340042114258 -30.40800094604492 M -240.4499969482422 -24.48600196838379 L -243.3480072021484 -33.60000228881836 L -249.0180053710938 -33.60000228881836 L -246.1200103759766 -24.48600196838379 L -240.4499969482422 -24.48600196838379 M 146.3699951171875 -27.63600158691406 L 147.9660034179688 -33.26399993896484 L 143.3459930419922 -33.26399993896484 L 141.7919921875 -27.63600158691406 L 146.3699951171875 -27.63600158691406 M 135.0299987792969 -27.63600158691406 L 133.3919982910156 -33.26399993896484 L 128.8139953613281 -33.26399993896484 L 130.4099884033203 -27.63600158691406 L 135.0299987792969 -27.63600158691406 M -40.68000411987305 10.83233261108398 L -49.43281936645508 3.883139371871948 C -49.6784782409668 4.400532245635986 -49.94380950927734 4.948005676269531 -50.22958755493164 5.527248859405518 L -51.05483627319336 7.19999885559082 L -74.15409088134766 7.19999885559082 L -73.47592163085938 5.843674659729004 L -83.10000610351562 7.035508632659912 L -83.10000610351562 7.073998928070068 L -83.41082000732422 7.073998928070068 L -84.90000152587891 7.258415699005127 L -84.90000152587891 7.073998928070068 L -126.9000015258789 7.073998928070068 L -126.9000015258789 6.737998962402344 L -150.2160034179688 6.737998962402344 L -150.2160034179688 7.19999885559082 L -161.5500030517578 7.19999885559082 L -161.5500030517578 1.868929147720337 L -166.6800079345703 2.673088073730469 L -166.6800079345703 6.779998779296875 L -191.1000061035156 6.779998779296875 C -194.2168426513672 6.779998779296875 -196.7298431396484 6.574332237243652 -198.7825927734375 6.151248931884766 C -199.5285339355469 5.997495174407959 -200.2560729980469 5.803656101226807 -200.9631500244141 5.570555210113525 L -201.3025817871094 7.19999885559082 L -212.5503387451172 7.19999885559082 L -212.4489593505859 6.779998779296875 L -232.260009765625 6.779998779296875 C -234.96484375 6.779998779296875 -237.2896728515625 6.617249011993408 -239.169921875 6.296248912811279 C -239.9205627441406 6.168076992034912 -240.6486053466797 6.00460958480835 -241.3513031005859 5.806736469268799 L -241.8157501220703 7.19999885559082 L -254.07958984375 7.19999885559082 L -252.6397552490234 3.186915636062622 C -251.3805847167969 -0.3226677179336548 -250.4459228515625 -3.610167741775513 -249.8617553710938 -6.584250926971436 C -249.4564971923828 -8.647299766540527 -249.1574096679688 -10.85276699066162 -248.9678497314453 -13.17000102996826 L -253.7400054931641 -13.17000102996826 L -253.7400054931641 -24.42600059509277 L -258.114013671875 -24.42600059509277 L -258.114013671875 7.031999111175537 L -275.3280029296875 7.031999111175537 L -275.3280029296875 -4.344000816345215 L -269.5740051269531 -4.344000816345215 L -269.5740051269531 -24.42600059509277 L -273.7799987792969 -24.42600059509277 L -273.7799987792969 -20.7738037109375 L -273.3600158691406 -20.86600112915039 L -273.3600158691406 -9.221084594726562 L -278.5260009765625 -8.08708667755127 L -278.5260009765625 7.031999111175537 L -294.35400390625 7.031999111175537 L -294.35400390625 -3.714000940322876 L -289.9859924316406 -3.714000940322876 L -289.9859924316406 -5.587253093719482 L -295.4880065917969 -4.369251251220703 L -295.4880065917969 -16.01650047302246 L -289.9859924316406 -17.23450469970703 L -289.9859924316406 -19.84800148010254 L -295.0679931640625 -19.84800148010254 L -295.0679931640625 -30.80400085449219 L -289.9859924316406 -30.80400085449219 L -289.9859924316406 -36.64200210571289 L -278.5260009765625 -36.64200210571289 L -278.5260009765625 -35.67600250244141 L -252.8261108398438 -35.67600250244141 L -253.1199188232422 -36.60000228881836 L -241.1539154052734 -36.60000228881836 L -239.6769866943359 -31.9550724029541 C -239.5795745849609 -32.59342956542969 -239.5034332275391 -33.22839736938477 -239.4488372802734 -33.85883331298828 L -239.21142578125 -36.60000228881836 L -231.35400390625 -36.60000228881836 L -231.35400390625 -37.02000045776367 L -219.9360046386719 -37.02000045776367 L -219.9360046386719 -33.49200057983398 L -210.906005859375 -33.49200057983398 L -210.906005859375 -24.75600051879883 L -210.1860046386719 -24.75600051879883 L -210.1860046386719 -33.03000259399414 L -204.7259979248047 -33.03000259399414 L -204.7259979248047 -36.60000228881836 L -193.3500061035156 -36.60000228881836 L -193.3500061035156 -33.03000259399414 L -192 -33.03000259399414 L -192 -35.97000122070312 L -167.6266632080078 -35.97000122070312 L -167.6708526611328 -33.7859992980957 L -164.5225982666016 -33.7859992980957 L -163.8925933837891 -36.60000228881836 L -152.4223327636719 -36.60000228881836 L -153.0103454589844 -33.7859992980957 L -151.1340026855469 -33.7859992980957 L -151.1340026855469 -36.09600067138672 L -125.2587509155273 -36.09600067138672 L -126.1988372802734 -32.36333465576172 C -126.8924560546875 -29.60920333862305 -127.9049453735352 -27.11040878295898 -129.2223968505859 -24.89473152160645 L -126.0180053710938 -23.5711841583252 L -126.0180053710938 -24.33600044250488 L -122.9520034790039 -24.33600044250488 L -122.9520034790039 -36.60000228881836 L -87.04800415039062 -36.60000228881836 L -87.04800415039062 -24.33600044250488 L -83.98200225830078 -24.33600044250488 L -83.98200225830078 -22.36040306091309 L -78.01575469970703 -36.60000228881836 L -65.85075378417969 -36.60000228881836 L -66.02991485595703 -36.18000030517578 L -43.80242156982422 -36.18000030517578 L -46.02847671508789 -26.18400192260742 L -42.64800262451172 -26.18400192260742 L -42.64800262451172 -30.97200012207031 L -39.12000274658203 -30.97200012207031 L -39.12000274658203 -36.81000137329102 L -27.66000366210938 -36.81000137329102 L -27.66000366210938 -36.60000228881836 L -17.16000366210938 -36.60000228881836 L -17.16000366210938 -26.94000053405762 L -17.11200332641602 -26.94000053405762 L -17.11200332641602 -36.60000228881836 L -5.73600435256958 -36.60000228881836 L -5.73600435256958 -27.41085433959961 C -4.743602752685547 -27.65295600891113 -3.80911660194397 -27.89459228515625 -2.93842077255249 -28.13433456420898 L 0.857995867729187 -29.17975044250488 L 0.857995867729187 -22.01699829101562 C 2.273401737213135 -25.92827796936035 3.240151166915894 -29.92979431152344 3.742995738983154 -33.97050094604492 L 4.070162296295166 -36.60000228881836 L 15.7216625213623 -36.60000228881836 L 15.32741260528564 -33.2495002746582 C 15.29726600646973 -32.99322128295898 15.26571273803711 -32.73795318603516 15.23279857635498 -32.48400115966797 L 21.69599533081055 -32.48400115966797 L 21.69599533081055 -36.60000228881836 L 33.1559944152832 -36.60000228881836 L 33.1559944152832 -32.02199935913086 L 39.01474761962891 -32.02199935913086 L 39.60733032226562 -29.79266738891602 C 40.47770309448242 -26.51841735839844 41.17227935791016 -23.14679718017578 41.68799591064453 -19.69906616210938 L 41.68799591064453 -22.15200042724609 L 45.25799560546875 -22.15200042724609 L 45.25799560546875 -24.25800132751465 L 41.09999465942383 -24.25800132751465 L 41.09999465942383 -35.63400268554688 L 56.55599594116211 -35.63400268554688 L 56.55599594116211 -35.92800140380859 L 83.34599304199219 -35.92800140380859 L 83.34599304199219 -27.44400024414062 L 99.25678253173828 -27.44400024414062 L 99.21482849121094 -37.02000045776367 L 110.7719955444336 -37.02000045776367 L 110.7719955444336 -27.44400024414062 L 124.8059921264648 -27.44400024414062 L 124.8059921264648 -29.62800025939941 L 126.7268218994141 -29.62800025939941 L 124.8449096679688 -36.26399993896484 L 132.9539947509766 -36.26399993896484 L 132.9539947509766 -36.68400192260742 L 143.8259887695312 -36.68400192260742 L 143.8259887695312 -36.26399993896484 L 148.8173828125 -36.26399993896484 L 148.8939056396484 -37.0620002746582 L 160.0390777587891 -37.0620002746582 L 159.7761688232422 -33.81958389282227 C 159.75341796875 -33.53909683227539 159.7257385253906 -33.23362350463867 159.6931915283203 -32.90399932861328 L 169.3199920654297 -32.90399932861328 L 169.3199920654297 -30.97200012207031 L 171.0899963378906 -30.97200012207031 L 171.0899963378906 -36.81000137329102 L 182.5500030517578 -36.81000137329102 L 182.5500030517578 -36.34799957275391 L 210.7740020751953 -36.34799957275391 L 210.7740020751953 -35.88600158691406 L 252.43798828125 -35.88600158691406 L 252.43798828125 -24.59400177001953 L 249.7877960205078 -24.59400177001953 L 247.7425384521484 -17.32200050354004 L 252.6539916992188 -17.32200050354004 L 252.6539916992188 -26.01600074768066 L 257.7757873535156 -26.01600074768066 L 265.083740234375 -36.60000228881836 L 279.5150756835938 -36.60000228881836 L 275.8900756835938 -31.35000038146973 L 287.2698974609375 -31.35000038146973 L 295.7887573242188 -14.64000129699707 L 291.6659851074219 -14.64000129699707 L 291.6659851074219 6.611999034881592 L 254.3339996337891 6.611999034881592 L 254.3339996337891 -14.64000129699707 L 253.3199920654297 -14.64000129699707 L 253.3199920654297 -6.030001163482666 L 236.7299957275391 -6.030001163482666 L 236.7299957275391 7.19999885559082 L 225.2699890136719 7.19999885559082 L 225.2699890136719 -6.030001163482666 L 210.6479949951172 -6.030001163482666 L 210.6479949951172 7.19999885559082 L 189.4812622070312 7.19999885559082 L 189.4678344726562 7.24199914932251 L 177.0507507324219 7.24199914932251 L 177.0658111572266 7.19999885559082 L 168.0659942626953 7.19999885559082 L 168.0659942626953 6.779998779296875 L 159.1161651611328 6.779998779296875 L 158.1041259765625 4.364169120788574 C 157.9048309326172 4.68919038772583 157.6979522705078 5.02363920211792 157.4834899902344 5.367498874664307 L 156.6026611328125 6.779998779296875 L 151.6799926757812 6.779998779296875 L 151.6799926757812 9.663581848144531 L 140.40234375 3.968927145004272 C 136.8820495605469 6.086851596832275 132.6601104736328 7.172614574432373 127.8229141235352 7.199915409088135 L 126.9839935302734 7.204666137695312 L 126.9839935302734 8.71574878692627 L 123.0790786743164 7.480248928070068 C 117.7789154052734 5.803332328796387 113.4215774536133 3.578415632247925 110.1282424926758 0.8670822978019714 C 108.1791839599609 -0.7374581098556519 106.4744567871094 -2.584301710128784 105.0280609130859 -4.654918670654297 C 103.5721817016602 -2.584359645843506 101.8625106811523 -0.7372286915779114 99.91374206542969 0.8670822978019714 C 96.62041473388672 3.578415632247925 92.26307678222656 5.803332328796387 86.96291351318359 7.480248928070068 L 83.05799865722656 8.71574878692627 L 83.05799865722656 6.737998962402344 L 54.74999618530273 6.737998962402344 L 54.74999618530273 3.541360139846802 L 42.89999771118164 5.516383647918701 L 42.89999771118164 6.779998779296875 L 17.81457901000977 6.779998779296875 L 14.00692081451416 2.738017797470093 C 13.16636943817139 3.852066516876221 12.23047542572021 5.000000476837158 11.20549583435059 6.17349910736084 L 10.30891227722168 7.19999885559082 L -5.736920833587646 7.19999885559082 L -5.408794403076172 6.863998889923096 L -17.11200332641602 6.863998889923096 L -17.11200332641602 5.573084354400635 L -31.05600357055664 8.025749206542969 L -31.05600357055664 7.19999885559082 L -40.68000411987305 7.19999885559082 L -40.68000411987305 10.83233261108398 Z M -5.73600435256958 -4.596001148223877 L 1.361995816230774 -4.596001148223877 L 1.361995816230774 -0.1608664393424988 C 3.112145185470581 -2.111446380615234 4.6327223777771 -4.031999588012695 5.910115718841553 -5.905442714691162 L -0.07222551107406616 -12.24600124359131 L -3.512587547302246 -12.24600124359131 L -2.350683927536011 -14.66086578369141 L -3.781882286071777 -16.17774772644043 C -4.429690361022949 -16.01425743103027 -5.081395626068115 -15.86109256744385 -5.73600435256958 -15.71848678588867 L -5.73600435256958 -4.596001148223877 Z M 164.7783813476562 -7.986569404602051 L 168.0659942626953 -0.2690391838550568 L 168.0659942626953 -3.882000923156738 L 171.0899963378906 -3.882000923156738 L 171.0899963378906 -5.220278739929199 L 166.9319915771484 -4.17025089263916 L 166.9319915771484 -16.19658470153809 L 171.0899963378906 -17.24657249450684 L 171.0899963378906 -19.68000030517578 L 167.3519897460938 -19.68000030517578 L 167.3519897460938 -20.05117797851562 C 167.1954498291016 -18.74978828430176 167.0117950439453 -17.4584846496582 166.8020782470703 -16.18608474731445 L 166.7923278808594 -16.13050079345703 C 166.2593688964844 -13.23740673065186 165.5831604003906 -10.50373840332031 164.7783813476562 -7.986569404602051 Z M 147.920166015625 -3.852772235870361 L 149.3322906494141 -3.123555898666382 C 149.6796875 -3.682277202606201 150.0103302001953 -4.231415748596191 150.3236389160156 -4.77000093460083 L 148.4216613769531 -4.77000093460083 C 148.2582397460938 -4.457423210144043 148.0910797119141 -4.151681900024414 147.920166015625 -3.852772235870361 Z M 112.0604782104492 -15.98400115966797 C 112.6233367919922 -14.65273380279541 113.2334594726562 -13.47414398193359 113.8864974975586 -12.45825099945068 C 115.0642471313477 -10.62625122070312 116.5186614990234 -9.073917388916016 118.2094955444336 -7.844167709350586 C 120.0064926147461 -6.537334442138672 122.330078125 -5.299251079559326 125.1159133911133 -4.16425085067749 L 126.1289138793945 -3.751540660858154 L 126.5753707885742 -4.77000093460083 L 124.8059921264648 -4.77000093460083 L 124.8059921264648 -12.07800102233887 L 122.7561645507812 -12.07800102233887 L 124.9202575683594 -15.98400115966797 L 112.0604782104492 -15.98400115966797 Z M -41.36561965942383 -3.882000923156738 L -39.12000274658203 -3.882000923156738 L -39.12000274658203 -5.169803142547607 L -42.01575469970703 -4.399678707122803 L -41.36561965942383 -3.882000923156738 Z M 84.01799774169922 -4.260001182556152 L 85.15940093994141 -4.260001182556152 C 87.84174346923828 -5.368734359741211 90.08594512939453 -6.57402515411377 91.83249664306641 -7.844167709350586 C 93.52333068847656 -9.073917388916016 94.97774505615234 -10.62625122070312 96.15549468994141 -12.45825099945068 C 96.80853271484375 -13.47414398193359 97.41865539550781 -14.65273380279541 97.98151397705078 -15.98400115966797 L 83.34599304199219 -15.98400115966797 L 83.34599304199219 -12.19800090789795 L 84.01799774169922 -12.19800090789795 L 84.01799774169922 -4.260001182556152 Z M -212.0400085449219 -4.260001182556152 L -210.2395324707031 -4.260001182556152 C -210.2072448730469 -4.542056560516357 -210.1777648925781 -4.821248054504395 -210.1511688232422 -5.097001075744629 C -209.9193572998047 -7.500277519226074 -209.7911987304688 -10.38153171539307 -209.7693634033203 -13.67400074005127 L -210.9000091552734 -13.67400074005127 L -210.9000091552734 -14.13600063323975 L -212.0400085449219 -14.13600063323975 L -212.0400085449219 -4.260001182556152 Z M -86.16600036621094 -7.284000873565674 L -84.906005859375 -7.284000873565674 L -84.906005859375 -4.260257720947266 L -80.69815063476562 -14.37610816955566 L -83.98200225830078 -16.04330253601074 L -83.98200225830078 -14.89200115203857 L -86.16600036621094 -14.89200115203857 L -86.16600036621094 -7.284000873565674 Z M -132.7860107421875 -4.428000926971436 L -125.0940017700195 -4.428000926971436 L -125.0940017700195 -7.284000873565674 L -123.8340072631836 -7.284000873565674 L -123.8340072631836 -14.89200115203857 L -125.0580062866211 -14.89200115203857 L -125.0580062866211 -11.45875072479248 L -125.9820022583008 -11.82523441314697 L -125.9820022583008 -6.156001091003418 L -132.7860107421875 -6.156001091003418 L -132.7860107421875 -4.428000926971436 Z M -146.7300109863281 -4.428000926971436 L -144.1620025634766 -4.428000926971436 L -144.1620025634766 -6.156001091003418 L -146.7300109863281 -6.156001091003418 L -146.7300109863281 -4.428000926971436 Z M -191.6699981689453 -4.431462287902832 C -191.5170593261719 -4.429562091827393 -191.3611145019531 -4.428444385528564 -191.2020111083984 -4.428110122680664 L -191.2020111083984 -4.518001079559326 L -191.6699981689453 -4.518001079559326 L -191.6699981689453 -4.431462287902832 Z M 33.1559944152832 -4.596001148223877 L 40.88999557495117 -4.596001148223877 L 40.88999557495117 -5.148001194000244 L 33.1559944152832 -5.148001194000244 L 33.1559944152832 -4.596001148223877 Z M 265.8359985351562 -4.638000965118408 L 280.1640014648438 -4.638000965118408 L 280.1640014648438 -5.946001052856445 L 265.8359985351562 -5.946001052856445 L 265.8359985351562 -4.638000965118408 Z M -44.72283172607422 -6.555311679840088 L -43.0680046081543 -5.237579822540283 L -43.0680046081543 -12.952467918396 C -43.53321838378906 -10.76843452453613 -44.08771133422852 -8.625514030456543 -44.72283172607422 -6.555311679840088 Z M 42.6071891784668 -10.86000061035156 C 42.65896987915039 -9.99365234375 42.69995498657227 -9.124523162841797 42.73016357421875 -8.251750946044922 L 42.81060028076172 -5.929347991943359 L 45.25799560546875 -6.329398632049561 L 45.25799560546875 -10.86000061035156 L 42.6071891784668 -10.86000061035156 Z M 20.02053642272949 -7.666296482086182 L 21.69599533081055 -5.950945377349854 L 21.69599533081055 -12.49651145935059 C 21.21712684631348 -10.83732891082764 20.65762329101562 -9.224117279052734 20.02053642272949 -7.666296482086182 Z M -17.16000366210938 -15.48000144958496 L -17.16000366210938 -6.053746223449707 L -17.11200332641602 -6.062216758728027 L -17.11200332641602 -15.48000144958496 L -17.16000366210938 -15.48000144958496 Z M -67.65802764892578 -14.00400066375732 L -67.38671112060547 -14.00400066375732 C -67.36555480957031 -14.26703548431396 -67.34601593017578 -14.531081199646 -67.32803344726562 -14.79690265655518 L -67.65802764892578 -14.00400066375732 Z M -41.87773132324219 -19.68000030517578 C -42.04490661621094 -18.53348731994629 -42.22342681884766 -17.41919326782227 -42.41271591186523 -16.34070777893066 L -39.12000274658203 -17.21645355224609 L -39.12000274658203 -19.68000030517578 L -41.87773132324219 -19.68000030517578 Z M -1.875496625900269 -16.69200134277344 L -1.373656868934631 -16.69200134277344 C -1.346455097198486 -16.74892997741699 -1.319364428520203 -16.80585670471191 -1.292358994483948 -16.86283493041992 C -1.486111998558044 -16.80499649047852 -1.680667877197266 -16.74799919128418 -1.875496625900269 -16.69200134277344 Z M 211.739990234375 -17.32200050354004 L 214.2574462890625 -17.32200050354004 L 212.2122039794922 -24.59400177001953 L 210.7740020751953 -24.59400177001953 L 210.7740020751953 -21.06000137329102 L 211.739990234375 -21.06000137329102 L 211.739990234375 -17.32200050354004 Z M -167.8975982666016 -22.57800102233887 L -167.9897613525391 -18.02300834655762 L -166.986572265625 -22.57800102233887 L -167.8975982666016 -22.57800102233887 Z M 236.7299957275391 -24.59400177001953 L 236.7299957275391 -20.18839836120605 L 237.9690704345703 -24.59400177001953 L 236.7299957275391 -24.59400177001953 Z M 224.0309143066406 -24.59400177001953 L 225.2699890136719 -20.18839836120605 L 225.2699890136719 -24.59400177001953 L 224.0309143066406 -24.59400177001953 Z M -250.260009765625 -24.63000106811523 L -249.3137664794922 -24.63000106811523 L -250.260009765625 -27.60583114624023 L -250.260009765625 -24.63000106811523 Z M 272.2070617675781 -26.01600074768066 L 276.5364074707031 -26.01600074768066 L 274.6934509277344 -29.61697006225586 L 272.2070617675781 -26.01600074768066 Z" stroke="none" fill="#fff"/>
    </g>
  </g>
</svg>
