<?xml version="1.0" standalone="no"?>
<!DOCTYPE svg PUBLIC "-//W3C//DTD SVG 20010904//EN"
 "http://www.w3.org/TR/2001/REC-SVG-20010904/DTD/svg10.dtd">
<svg version="1.0" xmlns="http://www.w3.org/2000/svg"
 width="216.000000pt" height="214.000000pt" viewBox="0 0 216.000000 214.000000"
 preserveAspectRatio="xMidYMid meet">

<g transform="translate(0.000000,214.000000) scale(0.100000,-0.100000)"
fill="#e25a1b" stroke="none">
<path d="M288 2108 c-3 -7 -11 -43 -18 -80 l-14 -68 -103 0 -103 0 0 -140 0
-140 70 0 c50 0 70 -4 70 -12 -1 -7 -38 -182 -84 -388 l-83 -375 214 -3 213
-2 0 -125 0 -124 -47 -7 c-27 -4 -122 -19 -213 -33 l-165 -26 -3 -148 c-2
-114 0 -147 10 -147 7 0 96 14 198 30 102 16 193 30 203 30 15 0 17 -14 17
-160 l0 -160 150 0 150 0 0 185 c0 212 -15 185 118 205 l72 12 0 149 0 148
-27 -4 c-16 -3 -55 -9 -87 -15 -33 -5 -63 -10 -68 -10 -4 0 -8 45 -8 100 l0
100 90 0 90 0 0 145 0 145 -90 0 -90 0 0 175 0 175 -135 0 -135 0 0 -175 0
-175 -45 0 c-25 0 -45 4 -45 9 0 5 23 114 50 241 28 127 50 234 50 236 0 2
101 4 225 4 l225 0 0 140 0 140 -191 0 -192 0 6 43 c4 23 10 59 13 80 l7 37
-146 0 c-107 0 -146 -3 -149 -12z"/>
<path d="M1030 1945 l0 -145 295 0 296 0 -33 -41 c-106 -133 -335 -261 -542
-303 l-61 -12 -3 -147 c-2 -135 -1 -147 15 -147 40 0 253 50 323 75 83 30 174
74 230 111 l36 24 272 -109 272 -109 0 146 0 147 -155 64 c-85 35 -155 65
-155 68 0 2 22 33 50 69 63 84 143 245 179 362 l29 92 -524 0 -524 0 0 -145z"/>
<path d="M1020 910 l0 -140 195 0 195 0 0 -215 0 -215 -220 0 -220 0 0 -140 0
-140 595 0 595 0 0 140 0 140 -225 0 -225 0 0 215 0 215 185 0 185 0 0 140 0
140 -530 0 -530 0 0 -140z"/>
</g>
</svg>
