<?xml version="1.0" standalone="no"?><!DOCTYPE svg PUBLIC "-//W3C//DTD SVG 1.1//EN" "http://www.w3.org/Graphics/SVG/1.1/DTD/svg11.dtd"><svg t="1711102285608" class="icon" viewBox="0 0 1024 1024" version="1.1" xmlns="http://www.w3.org/2000/svg" p-id="4305" xmlns:xlink="http://www.w3.org/1999/xlink" width="200" height="200"><path d="M752.881664 1024c-66.064384 0-151.355392-44.009472-211.273728-80.941056-80.242688-49.444864-166.68672-117.85216-243.41504-192.608256l-0.27648-0.27648-24.363008-24.367104c-74.760192-76.722176-143.161344-163.172352-192.6144-243.41504C44.015616 422.473728 0 337.18272 0 271.118336c0-70.69696 50.55488-145.73568 72.290304-174.712832C89.249792 73.791488 148.504576 0 198.85056 0c20.67456 0 42.938368 13.531136 72.198144 43.876352 25.880576 26.830848 50.714624 60.184576 66.988032 83.439616 21.858304 31.22176 42.070016 63.911936 56.92416 92.053504 24.049664 45.561856 26.832896 65.099776 26.832896 75.833344 0 21.661696-11.3152 40.450048-33.624064 55.83872-14.690304 10.131456-32.323584 17.760256-49.375232 25.141248-11.501568 4.974592-29.868032 12.914688-36.872192 18.499584 2.445312 10.350592 13.125632 35.34848 41.996288 77.73184 26.90048 39.491584 61.68576 82.290688 93.110272 114.563072 32.26624 31.420416 75.0592 66.209792 114.563072 93.110272 42.371072 28.85632 67.36896 39.542784 77.727744 41.990144 5.578752-7.00416 13.524992-25.36448 18.499584-36.866048 7.374848-17.055744 15.0016-34.691072 25.141248-49.381376 15.388672-22.308864 34.177024-33.61792 55.83872-33.61792 10.733568 0 30.271488 2.781184 75.839488 26.826752 28.135424 14.854144 60.831744 35.065856 92.049408 56.92416 23.25504 16.279552 56.60672 41.1136 83.443712 66.988032C1010.468864 782.211072 1024 804.47488 1024 825.14944c0 50.345984-73.785344 109.600768-96.39936 126.560256C898.617344 973.44512 823.578624 1024 752.881664 1024L752.881664 1024zM340.529152 707.278848c73.607168 71.702528 156.27264 137.148416 232.804352 184.30976 74.194944 45.725696 139.640832 71.950336 179.550208 71.950336 35.551232 0 86.23104-21.712896 135.579648-58.07104 21.633024-15.94368 41.322496-33.69984 55.441408-49.993728 13.248512-15.296512 18.092032-25.274368 19.320832-29.300736-5.117952-10.99776-35.528704-45.387776-106.504192-94.349312-27.84256-19.204096-56.623104-36.85376-81.0496-49.692672-30.6688-16.123904-43.450368-18.909184-46.37696-19.365888-1.13664 0.780288-4.476928 3.571712-9.555968 12.0832-5.6832 9.531392-11.147264 22.163456-16.427008 34.373632-6.5024 15.038464-13.232128 30.588928-21.48352 43.134976-13.416448 20.40832-29.89056 30.76096-48.959488 30.773248-0.346112 0-0.704512-0.006144-1.073152-0.018432-9.27744-0.196608-37.535744-0.796672-114.24768-53.041152-42.346496-28.852224-88.336384-66.254848-123.004928-100.069376l-0.54272-0.536576c-33.808384-34.678784-71.211008-80.662528-100.059136-123.004928-52.250624-76.711936-52.854784-104.968192-53.051392-114.251776-0.415744-19.417088 9.834496-36.179968 30.451712-49.831936 12.607488-8.3456 28.284928-15.12448 43.444224-21.686272 12.214272-5.279744 24.840192-10.745856 34.373632-16.422912 8.511488-5.072896 11.311104-8.419328 12.0832-9.555968-0.456704-2.926592-3.241984-15.706112-19.36384-46.37696-12.838912-24.420352-30.490624-53.20704-49.69472-81.043456-48.961536-70.981632-83.351552-101.390336-94.349312-106.508288-4.028416 1.232896-14.006272 6.076416-29.302784 19.324928-16.295936 14.112768-34.050048 33.806336-49.987584 55.441408-36.364288 49.342464-58.07104 100.022272-58.07104 135.573504 0 39.907328 26.220544 105.34912 71.944192 179.550208 47.16544 76.531712 112.613376 159.197184 184.30976 232.804352L340.529152 707.278848 340.529152 707.278848zM340.529152 707.278848" fill="#e25a1b" p-id="4306"></path></svg>